<svg id="Layer_1" data-name="Layer 1" xmlns="http://www.w3.org/2000/svg" viewBox="0 0 754.99 1093.33"><title>exclusivo</title><path d="M396.34,433,162.5,958.25l166.64-63.84L393.09,1061,627,535.72Z" transform="translate(-162.5 32.33)" fill="#c68f30"/><polygon points="385.73 708.98 231.58 1055.2 175.02 907.86 27.7 964.37 181.83 618.2 195.61 624.33 56.32 937.19 183.72 888.33 232.58 1015.73 371.9 702.82 385.73 708.98" fill="#f4cc6a"/><path d="M453,535.72l233.83,525.2L750.9,894.37l166.6,64L683.63,433Z" transform="translate(-162.5 32.33)" fill="#c68f30"/><polygon points="573.18 618.17 727.33 964.4 579.98 907.84 523.4 1055.13 369.27 708.96 383.06 702.82 522.35 1015.68 571.29 888.31 698.66 937.24 559.34 624.34 573.18 618.17" fill="#f4cc6a"/><path d="M185.4,367.36a68.35,68.35,0,0,1,0,53.15q-3.93,9.32-7.48,18.83-2,5.45-3.93,11c-9.08,26.33-2.44,55.83,18.18,74.55q8.51,7.73,17.26,14.46c16.36,12.62,25.22,32.41,25.45,53.07q0,4.13.19,8.26a69,69,0,0,0,57.82,65.78l3.39.53a69,69,0,0,1,51.26,37.27l.41.81A68.72,68.72,0,0,0,427.53,740l3.78-1.06A67.94,67.94,0,0,1,493,751.61c.88.72,1.77,1.43,2.66,2.14a69,69,0,0,0,85.66.45L584,752A67.92,67.92,0,0,1,645.83,740l3.81,1.11A68.75,68.75,0,0,0,729.55,707l.43-.83a68.94,68.94,0,0,1,51.67-36.66l3.33-.47a68.93,68.93,0,0,0,58.62-65.14c.12-2.44.2-4.87.26-7.3.51-21,9.81-41,26.64-53.71q8.43-6.33,16.63-13.54c20.94-18.41,28-47.9,19.11-74.34q-5.78-17.25-12.83-33.91a69.84,69.84,0,0,1,0-54.39q7-16.64,12.83-33.91c8.85-26.44,1.83-55.92-19.11-74.34q-8.19-7.2-16.63-13.54c-16.83-12.66-26.13-32.66-26.64-53.71-.06-2.43-.14-4.86-.26-7.3A68.93,68.93,0,0,0,785,118.8l-3.33-.47A68.94,68.94,0,0,1,730,81.67l-.43-.83a68.75,68.75,0,0,0-79.91-34.05l-3.81,1.11A67.92,67.92,0,0,1,584,35.83l-2.73-2.15a69,69,0,0,0-85.66.44L493,36.26A68,68,0,0,1,431.31,49c-1.25-.37-2.51-.72-3.78-1.07A68.72,68.72,0,0,0,348,82.84l-.41.81a69,69,0,0,1-51.26,37.27l-3.39.53a69,69,0,0,0-57.82,65.78q-.15,4.14-.19,8.26c-.23,20.66-9.09,40.45-25.45,53.07q-8.75,6.75-17.26,14.46c-20.62,18.72-27.26,48.22-18.18,74.55q1.89,5.52,3.93,11Q181.46,358,185.4,367.36Z" transform="translate(-162.5 32.33)" fill="#f4cc6a" stroke="#c68f30" stroke-miterlimit="10" stroke-width="5"/><circle cx="377.5" cy="425.67" r="112.58" fill="#f4cc6a"/><path d="M756,394c-5.07.14-10.32-.46-15.17.65a38.05,38.05,0,0,0-13.56,6.1c-17.15,12.43-35.74,14.63-55.68,9-9.36-2.66-18.72-3.19-28,.13a38.28,38.28,0,0,0-16.06,11l98.26,79.89-.31.6L607.3,454.59a38.32,38.32,0,0,0-.92,21.27,42.4,42.4,0,0,0,12.29,20.57c9,8.7,16.27,18.46,19.66,30.72a55.63,55.63,0,0,1,1.74,21.17c-1.19,10.58.89,20.3,7.51,28.84.27.34.5.71.74,1.08,0,.06,0,.16,0,.63-4.1-1.93-7.61-4.5-9.87-8.07-3.22-5.1-5.84-10.58-8.55-16-1.49-3-2.62-6.15-3.94-9.21a44.09,44.09,0,0,0-17.91-20.53c-8.54-5.25-17.1-10.49-25.25-16.31a60.49,60.49,0,0,1-21.27-27.65c-.22-.57-.5-1.12-.77-1.67a8.67,8.67,0,0,0-.79-1c-7,43.45-13.83,86.38-20.7,129.3l-.72,0c-6.35-42.68-12.7-85.36-19.12-128.53a8.13,8.13,0,0,0-1,1.35c-6,16-17.35,27.22-31.68,35.85q-9,5.43-17.9,11.16a39.42,39.42,0,0,0-14.76,17.84c-2.39,5.48-4.67,11-7.09,16.48-2.93,6.64-7,12.36-13.32,16.3-.64.4-1.33.72-2.56,1.38a9,9,0,0,1,.6-1.34,37.18,37.18,0,0,0,8-28.18,57.39,57.39,0,0,1,6.19-33.73,75.36,75.36,0,0,1,14.52-18.66c7.87-7.68,13-16.77,13.94-27.93a40.28,40.28,0,0,0-1.9-15.07L355.12,501.08l-.41-.66,99.73-81.32-.39-.59c-2.76.28-5.51.64-8.28.81-14.5.91-27.51-3.84-39.95-10.68-3.46-1.91-7-3.76-10.32-5.87-11.9-7.52-24.69-9.61-38.47-7-7.43,1.39-15,2.53-22.53.77-3.58-.83-7-2.38-10.5-3.6l.27-.65c3.54,0,7.1.24,10.61-.06,7.1-.61,13.36-3.51,19.09-7.68,15.41-11.21,32.42-13.58,50.68-9.2,4.78,1.15,9.57,2.54,14.43,3,12.88,1.3,23.82-3,33.11-12.74l-97.66-79.33.3-.59,117.93,46.63a39.93,39.93,0,0,0,1-21.06c-2-8.88-6.7-16.18-13.13-22.46-7.31-7.14-13.44-15.09-17.23-24.69a55.9,55.9,0,0,1-3.48-27c1.18-10.77-1.23-20.42-8-28.94a15.69,15.69,0,0,1-.81-1.39c4,1.82,7.16,4,9.29,7a124.25,124.25,0,0,1,8.15,13.77,109.26,109.26,0,0,1,4.48,10.7c4.42,11.12,12.33,18.92,22.53,24.94a258.9,258.9,0,0,1,23.94,15.85c8.45,6.35,14.3,14.95,18.32,24.74.37.9.77,1.78,1.19,2.65,0,.1.28.11.75.29q9.34-63.44,18.67-126.69l.91-.06c6.78,42.17,13.57,84.34,20.47,127.18A12.39,12.39,0,0,0,561,305.7c5.9-16.1,17.55-27,31.82-35.7,7-4.24,14-8.43,20.68-13.18,8.15-5.82,11.7-14.9,15.59-23.72a159.59,159.59,0,0,1,9.12-17.74c2.2-3.68,5.85-6.21,10.3-8.53a9.6,9.6,0,0,1-.73,1.56c-6.71,8.46-9,18.12-7.86,28.73,2.1,19.43-4.83,35.54-18.24,49.18-4.65,4.72-9.16,9.48-12.15,15.49-4.75,9.57-5.6,19.45-2.43,30.18l117.42-46.34.4.7L624.75,367.69c5.28-.26,10.09-.75,14.9-.69,11.43.13,21.92,3.77,31.88,9.14,5.73,3.09,11.53,6.06,17.17,9.3,9.84,5.65,20.32,6.89,31.36,5.17,4.69-.73,9.41-1.32,14.13-1.77A34.71,34.71,0,0,1,756,393.49ZM540,480.46a86.82,86.82,0,1,0-86.86-86.8A86.83,86.83,0,0,0,540,480.46Z" transform="translate(-162.5 32.33)" fill="#c68f30"/><path d="M614.25,393.72c0,41.7-33.5,75.69-74.75,75.74s-74.76-34.13-74.66-75.82,33.42-75.49,74.61-75.57S614.2,351.91,614.25,393.72ZM539.41,466c39.22.11,71.2-32.11,71.42-72,.23-39.71-31.66-72.31-70.9-72.48-39.45-.16-71.54,32.05-71.68,72S500,465.87,539.41,466Z" transform="translate(-162.5 32.33)" fill="#c68f30"/><path d="M608.82,393.91c-.16,39-31.21,70.06-69.91,69.88-38-.17-68.84-31.76-68.65-70.36.2-38.93,31.22-69.92,69.78-69.72C578.21,323.91,609,355.32,608.82,393.91Z" transform="translate(-162.5 32.33)" fill="#c68f30"/><path d="M540.84,418.23H502.15a21.67,21.67,0,0,1-21.68-21.65V369.66h24.08c14.49,0,32.67,17.47,36.29,36.25Z" transform="translate(-162.5 32.33)" fill="#f4cc6a"/><ellipse cx="343.96" cy="426.28" rx="14.25" ry="14.24" fill="#c68f30"/><ellipse cx="343.96" cy="426.28" rx="10.06" ry="10.05" fill="#f4cc6a"/><path d="M539.16,418.23h38.69a21.67,21.67,0,0,0,21.68-21.65V369.66H575.45c-14.49,0-32.67,17.47-36.29,36.25Z" transform="translate(-162.5 32.33)" fill="#f4cc6a"/><ellipse cx="411.04" cy="426.28" rx="14.25" ry="14.24" fill="#c68f30"/><ellipse cx="411.04" cy="426.28" rx="10.06" ry="10.05" fill="#f4cc6a"/><polygon id="bico" points="377.5 459.86 370.98 448.58 364.46 437.3 377.5 437.3 390.54 437.3 384.01 448.58 377.5 459.86" fill="#f4cc6a" stroke="#c68f30" stroke-miterlimit="10" stroke-width="3"/><text transform="translate(127.72 368.17) rotate(-66.8)" font-size="130" fill="#c68f30" stroke="#c68f30" stroke-miterlimit="10" stroke-width="5" font-family="Cormorant-Bold, Cormorant" font-weight="700">E</text><text transform="matrix(0.63, -0.78, 0.78, 0.63, 152.5, 306.35)" font-size="130" fill="#c68f30" stroke="#c68f30" stroke-miterlimit="10" stroke-width="5" font-family="Cormorant-Bold, Cormorant" font-weight="700">X</text><text transform="matrix(0.83, -0.56, 0.56, 0.83, 199.14, 246.74)" font-size="130" fill="#c68f30" stroke="#c68f30" stroke-miterlimit="10" stroke-width="5" font-family="Cormorant-Bold, Cormorant" font-weight="700">C</text><text transform="matrix(0.95, -0.31, 0.31, 0.95, 266.8, 201.28)" font-size="130" fill="#c68f30" stroke="#c68f30" stroke-miterlimit="10" stroke-width="5" font-family="Cormorant-Bold, Cormorant" font-weight="700">L</text><text transform="translate(328.38 178.66) rotate(-1.62)" font-size="130" fill="#c68f30" stroke="#c68f30" stroke-miterlimit="10" stroke-width="5" font-family="Cormorant-Bold, Cormorant" font-weight="700">U</text><text transform="translate(412.73 177.04) rotate(14.06)" font-size="130" fill="#c68f30" stroke="#c68f30" stroke-miterlimit="10" stroke-width="5" font-family="Cormorant-Bold, Cormorant" font-weight="700">S</text><text transform="matrix(0.9, 0.43, -0.43, 0.9, 473.54, 192.97)" font-size="130" fill="#c68f30" stroke="#c68f30" stroke-miterlimit="10" stroke-width="5" font-family="Cormorant-Bold, Cormorant" font-weight="700">I</text><text transform="translate(511.08 207.54) rotate(38.66)" font-size="130" fill="#c68f30" stroke="#c68f30" stroke-miterlimit="10" stroke-width="5" font-family="Cormorant-Bold, Cormorant" font-weight="700">V</text><text transform="translate(572.38 253.32) rotate(56.68)" font-size="130" fill="#c68f30" stroke="#c68f30" stroke-miterlimit="10" stroke-width="5" font-family="Cormorant-Bold, Cormorant" font-weight="700">O</text><text transform="translate(627.27 486.5) rotate(113.2)" font-size="130" fill="#c68f30" stroke="#c68f30" stroke-miterlimit="10" stroke-width="5" font-family="Cormorant-Bold, Cormorant" font-weight="700">E</text><text transform="matrix(-0.63, 0.78, -0.78, -0.63, 602.5, 548.31)" font-size="130" fill="#c68f30" stroke="#c68f30" stroke-miterlimit="10" stroke-width="5" font-family="Cormorant-Bold, Cormorant" font-weight="700">X</text><text transform="matrix(-0.83, 0.56, -0.56, -0.83, 555.85, 607.92)" font-size="130" fill="#c68f30" stroke="#c68f30" stroke-miterlimit="10" stroke-width="5" font-family="Cormorant-Bold, Cormorant" font-weight="700">C</text><text transform="translate(488.2 653.39) rotate(161.82)" font-size="130" fill="#c68f30" stroke="#c68f30" stroke-miterlimit="10" stroke-width="5" font-family="Cormorant-Bold, Cormorant" font-weight="700">L</text><text transform="matrix(-1, 0.03, -0.03, -1, 426.61, 676)" font-size="130" fill="#c68f30" stroke="#c68f30" stroke-miterlimit="10" stroke-width="5" font-family="Cormorant-Bold, Cormorant" font-weight="700">U</text><text transform="translate(342.26 677.63) rotate(-165.94)" font-size="130" fill="#c68f30" stroke="#c68f30" stroke-miterlimit="10" stroke-width="5" font-family="Cormorant-Bold, Cormorant" font-weight="700">S</text><text transform="translate(281.45 661.69) rotate(-154.65)" font-size="130" fill="#c68f30" stroke="#c68f30" stroke-miterlimit="10" stroke-width="5" font-family="Cormorant-Bold, Cormorant" font-weight="700">I</text><text transform="translate(243.91 647.12) rotate(-141.34)" font-size="130" fill="#c68f30" stroke="#c68f30" stroke-miterlimit="10" stroke-width="5" font-family="Cormorant-Bold, Cormorant" font-weight="700">V</text><text transform="matrix(-0.55, -0.84, 0.84, -0.55, 182.62, 601.34)" font-size="130" fill="#c68f30" stroke="#c68f30" stroke-miterlimit="10" stroke-width="5" font-family="Cormorant-Bold, Cormorant" font-weight="700">O</text></svg>