<svg id="Layer_1" data-name="Layer 1" xmlns="http://www.w3.org/2000/svg" viewBox="0 0 276 35.35"><title>insc-1</title><path d="M46.5,25.18l1.81.68v1.85H42.17V25.86L44,25.18V7.2l-1.81-.67V4.67h6.14V6.53L46.5,7.2Z" fill="#f93"/><path d="M51.1,12.83l-1.49-.61V10.43H53l.43,3.2h.08A6.47,6.47,0,0,1,55,11.06a3,3,0,0,1,2.12-1,2.31,2.31,0,0,1,1.39.45,3.17,3.17,0,0,1,1,1.28,9.17,9.17,0,0,1,.55,2.51c.11,1.08.16,2.54.16,4.37v6.59l1.49.61v1.79H56.49V25.92l1.3-.61V19.14c0-1.28,0-2.28-.07-3a10,10,0,0,0-.24-1.71,2.28,2.28,0,0,0-.58-1.15A1.32,1.32,0,0,0,56,13a1.91,1.91,0,0,0-1.61,1,7.41,7.41,0,0,0-.87,3.75v7.58l1.3.61v1.79H49.61V25.92l1.49-.61Z" fill="#f93"/><path d="M66.74,26.08a2.53,2.53,0,0,0,.91-.16,2.41,2.41,0,0,0,.74-.45,2,2,0,0,0,.5-.72,2.33,2.33,0,0,0,.19-1,2.46,2.46,0,0,0-.24-1.12,3.12,3.12,0,0,0-.64-.84,5.22,5.22,0,0,0-.89-.62l-1-.53A6.59,6.59,0,0,1,65.16,20a4.64,4.64,0,0,1-1-1.09,5.17,5.17,0,0,1-.73-1.55,7.31,7.31,0,0,1-.27-2.11,6.19,6.19,0,0,1,1-3.7A3.35,3.35,0,0,1,67,10.11a3.91,3.91,0,0,1,1.6.32,3.46,3.46,0,0,1,1.22.91,4.2,4.2,0,0,1,.78,1.41,5.4,5.4,0,0,1,.28,1.78,3.3,3.3,0,0,1-.35,1.69,1.1,1.1,0,0,1-1,.58,1.12,1.12,0,0,1-1-.5,2,2,0,0,1-.34-1.16,2.78,2.78,0,0,1,.19-1,1.87,1.87,0,0,1,.5-.76,2.32,2.32,0,0,0-.72-.94,1.89,1.89,0,0,0-1.13-.34,1.56,1.56,0,0,0-1.36.63,3,3,0,0,0-.44,1.74,3,3,0,0,0,.5,1.91,4.12,4.12,0,0,0,1.35,1c.52.25,1,.52,1.53.8a5.59,5.59,0,0,1,1.34,1,4.53,4.53,0,0,1,1,1.49,5.65,5.65,0,0,1,.36,2.13A6.38,6.38,0,0,1,71,25a4.7,4.7,0,0,1-1,1.63,4.29,4.29,0,0,1-1.48,1,4.86,4.86,0,0,1-1.84.35,3.72,3.72,0,0,1-2.89-1.12,4.29,4.29,0,0,1-1-3,4,4,0,0,1,.44-2.05,1.26,1.26,0,0,1,1.06-.73,1.14,1.14,0,0,1,.86.43,1.74,1.74,0,0,1,.4,1.23,3.05,3.05,0,0,1-.21,1.12,2.11,2.11,0,0,1-.49.8,2.88,2.88,0,0,0,.64,1A1.72,1.72,0,0,0,66.74,26.08Z" fill="#f93"/><path d="M77.82,10.11a3.72,3.72,0,0,1,2.94,1.36,4.67,4.67,0,0,1,.86,1.59,6.33,6.33,0,0,1,.31,2,4.24,4.24,0,0,1-.46,2.2,1.34,1.34,0,0,1-1.14.75,1,1,0,0,1-.64-.21,1.49,1.49,0,0,1-.41-.54,2.94,2.94,0,0,1-.24-.76,5.69,5.69,0,0,1-.06-.83,3.53,3.53,0,0,1,.24-1.37,1.63,1.63,0,0,1,.72-.84,2.18,2.18,0,0,0-.81-.92,2.16,2.16,0,0,0-1.22-.36,1.76,1.76,0,0,0-1.09.36,2.59,2.59,0,0,0-.8,1.13,8.23,8.23,0,0,0-.5,2.08A23.83,23.83,0,0,0,75.34,19a21.13,21.13,0,0,0,.14,2.72,11,11,0,0,0,.36,1.72,4,4,0,0,0,.8,1.46,1.6,1.6,0,0,0,1.23.53,2.34,2.34,0,0,0,.83-.16,3.42,3.42,0,0,0,.85-.47,4.14,4.14,0,0,0,.79-.78A5.44,5.44,0,0,0,81,22.85l1,1.34a7.16,7.16,0,0,1-2.1,3,4.17,4.17,0,0,1-2.54.88A3.45,3.45,0,0,1,75,27.12a6.12,6.12,0,0,1-1.54-2.67,14.71,14.71,0,0,1-.52-2.35,21.44,21.44,0,0,1-.18-2.87,18.79,18.79,0,0,1,.35-3.76,10.56,10.56,0,0,1,1-2.88,5.19,5.19,0,0,1,1.6-1.84A3.8,3.8,0,0,1,77.82,10.11Z" fill="#f93"/><path d="M89,12.77a.52.52,0,0,0-.37.25,5.19,5.19,0,0,0-.37.64,6.68,6.68,0,0,0-.33.82c-.1.29-.17.54-.22.75-.16.75-.29,1.5-.41,2.26a18.48,18.48,0,0,0-.17,2.8v5l2.08.61v1.79h-6V25.92l1.49-.61v-13l-1.49-.61V10.43H86.5l.42,4.23H87a10.09,10.09,0,0,1,1.19-3.38,2,2,0,0,1,1.67-1.17,1.47,1.47,0,0,1,1.26.79,3.87,3.87,0,0,1,.5,2.09,4.34,4.34,0,0,1-.35,1.75,1.09,1.09,0,0,1-1,.78,1.18,1.18,0,0,1-1.12-.59,2.75,2.75,0,0,1-.32-1.3,3.57,3.57,0,0,1,0-.37C88.89,13.17,88.91,13,89,12.77Z" fill="#f93"/><path d="M92.33,12.22V10.43h4V25.31l1.49.61v1.79H92.33V25.92l1.49-.61V12.83Zm1.28-6.65A3.3,3.3,0,0,1,94,3.9,1.18,1.18,0,0,1,95,3.26a1.19,1.19,0,0,1,1.06.64,3.2,3.2,0,0,1,.39,1.67,3.1,3.1,0,0,1-.38,1.65A1.18,1.18,0,0,1,95,7.84,1.17,1.17,0,0,1,94,7.22,3.2,3.2,0,0,1,93.61,5.57Z" fill="#f93"/><path d="M103,34.43a2.22,2.22,0,0,1-1.76-.89l.6-1.35a1.54,1.54,0,0,0,1.14.64.72.72,0,0,0,.81-.83.89.89,0,0,0-.24-.66.85.85,0,0,0-.63-.24,2.58,2.58,0,0,0-.46,0,1.28,1.28,0,0,0-.43.15l-.33-.93,1.1-2.4q-2.25-.39-3.26-3.52A14.71,14.71,0,0,1,99,22.1a21.44,21.44,0,0,1-.18-2.87,18.79,18.79,0,0,1,.35-3.76,10.56,10.56,0,0,1,1-2.88,5.19,5.19,0,0,1,1.6-1.84,3.79,3.79,0,0,1,2.14-.64,3.72,3.72,0,0,1,2.95,1.36,4.67,4.67,0,0,1,.86,1.59,6.33,6.33,0,0,1,.31,2,4.24,4.24,0,0,1-.46,2.2,1.34,1.34,0,0,1-1.14.75,1,1,0,0,1-.64-.21,1.63,1.63,0,0,1-.42-.54,2.93,2.93,0,0,1-.23-.76,5.69,5.69,0,0,1-.07-.83,3.53,3.53,0,0,1,.25-1.37,1.63,1.63,0,0,1,.72-.84,2.18,2.18,0,0,0-.81-.92,2.16,2.16,0,0,0-1.22-.36,1.74,1.74,0,0,0-1.09.36,2.59,2.59,0,0,0-.8,1.13,8.64,8.64,0,0,0-.51,2.08,25.86,25.86,0,0,0-.17,3.19,21.13,21.13,0,0,0,.14,2.72,11,11,0,0,0,.36,1.72,4,4,0,0,0,.8,1.46,1.6,1.6,0,0,0,1.23.53,2.29,2.29,0,0,0,.82-.16,3.47,3.47,0,0,0,.86-.47,4.14,4.14,0,0,0,.79-.78,5,5,0,0,0,.66-1.15l1,1.34a7.91,7.91,0,0,1-1.75,2.66,4.09,4.09,0,0,1-2.08,1.09l-.52,1.47,0,.09a1.74,1.74,0,0,1,1.51.61,3.29,3.29,0,0,1,.2,2.79,2.38,2.38,0,0,1-.6.84,2.5,2.5,0,0,1-.88.52A3.41,3.41,0,0,1,103,34.43Z" fill="#f93"/><path d="M119.46,19.07a19.77,19.77,0,0,1-.36,3.86,10.46,10.46,0,0,1-1,3,4,4,0,0,1-1.53,1.6,4.86,4.86,0,0,1-4.21,0A3.89,3.89,0,0,1,110.8,26a10.46,10.46,0,0,1-1-3,21.41,21.41,0,0,1,0-7.71,10.42,10.42,0,0,1,1-3,4,4,0,0,1,1.53-1.6,4.86,4.86,0,0,1,4.21,0,4.08,4.08,0,0,1,1.53,1.6,10.43,10.43,0,0,1,1,3A19.67,19.67,0,0,1,119.46,19.07ZM110.59,7.74a7.22,7.22,0,0,1,.71-3.48A2,2,0,0,1,113,3.1a1.4,1.4,0,0,1,.85.28,4.87,4.87,0,0,1,.68.6,7,7,0,0,0,.61.61,1,1,0,0,0,.68.27,1,1,0,0,0,.87-.41,2.52,2.52,0,0,0,.39-1.19h1.16q-.41,4.85-2.45,4.84a1.32,1.32,0,0,1-.85-.28,6.26,6.26,0,0,1-.67-.6l-.63-.63A1,1,0,0,0,113,6.3a1,1,0,0,0-.87.39,2.24,2.24,0,0,0-.38,1Zm2.08,16.87a1.85,1.85,0,0,0,3.52,0,17.05,17.05,0,0,0,.62-5.54,17,17,0,0,0-.62-5.53,1.85,1.85,0,0,0-3.52,0,17,17,0,0,0-.61,5.53A17.12,17.12,0,0,0,112.67,24.61Z" fill="#f93"/><path d="M123.44,19.52a14.14,14.14,0,0,0,.39,3.62c.41,1.51,1.12,2.27,2.13,2.27a2.8,2.8,0,0,0,1.7-.63,4.91,4.91,0,0,0,1.43-1.93l1,1.34a8,8,0,0,1-1.83,2.72A3.88,3.88,0,0,1,125.47,28a3.44,3.44,0,0,1-2.44-.94,6,6,0,0,1-1.56-2.77,13.27,13.27,0,0,1-.43-2.19,23.79,23.79,0,0,1-.13-2.64,15.59,15.59,0,0,1,1.24-6.93,3.85,3.85,0,0,1,3.54-2.45,3.55,3.55,0,0,1,1.89.53,4.33,4.33,0,0,1,1.44,1.5,8.23,8.23,0,0,1,.91,2.4,15,15,0,0,1,.32,3.22c0,.24,0,.46,0,.69s0,.58-.05,1.07Zm2.21-7.2q-2,0-2.19,5.15h4.25v-.83a7.56,7.56,0,0,0-.54-3.2A1.67,1.67,0,0,0,125.65,12.32Z" fill="#f93"/><path d="M135.62,26.08a2.49,2.49,0,0,0,.91-.16,2.58,2.58,0,0,0,.75-.45,2,2,0,0,0,.5-.72,2.5,2.5,0,0,0,.18-1,2.46,2.46,0,0,0-.24-1.12,2.76,2.76,0,0,0-.64-.84,4.85,4.85,0,0,0-.89-.62l-1-.53a6.59,6.59,0,0,1-1.17-.72,4.68,4.68,0,0,1-1-1.09,5.42,5.42,0,0,1-.72-1.55A7.31,7.31,0,0,1,132,15.2a6.19,6.19,0,0,1,1-3.7,3.35,3.35,0,0,1,2.88-1.39,4,4,0,0,1,1.61.32,3.51,3.51,0,0,1,1.21.91,4.4,4.4,0,0,1,.79,1.41,5.4,5.4,0,0,1,.28,1.78,3.19,3.19,0,0,1-.36,1.69,1.14,1.14,0,0,1-1.94.08,2,2,0,0,1-.35-1.16,2.78,2.78,0,0,1,.19-1,1.88,1.88,0,0,1,.51-.76,2.34,2.34,0,0,0-.73-.94,1.87,1.87,0,0,0-1.13-.34,1.53,1.53,0,0,0-1.35.63,2.93,2.93,0,0,0-.45,1.74,3,3,0,0,0,.5,1.91,4.06,4.06,0,0,0,1.36,1c.51.25,1,.52,1.53.8a5.59,5.59,0,0,1,1.34,1,4.7,4.7,0,0,1,1,1.49,5.86,5.86,0,0,1,.35,2.13,6.63,6.63,0,0,1-.35,2.22,4.57,4.57,0,0,1-1,1.63,4.2,4.2,0,0,1-1.48,1,4.86,4.86,0,0,1-1.84.35,3.74,3.74,0,0,1-2.89-1.12,4.29,4.29,0,0,1-1-3,4.08,4.08,0,0,1,.44-2.05,1.26,1.26,0,0,1,1.07-.73,1.16,1.16,0,0,1,.86.43,1.78,1.78,0,0,1,.39,1.23,3.05,3.05,0,0,1-.21,1.12,2.11,2.11,0,0,1-.48.8,2.74,2.74,0,0,0,.64,1A1.7,1.7,0,0,0,135.62,26.08Z" fill="#f93"/><path d="M146,23.94a6.85,6.85,0,0,1,.36-2.32,5,5,0,0,1,1.1-1.78,6.45,6.45,0,0,1,1.9-1.31,16.23,16.23,0,0,1,2.73-1c-.06-1.07-.14-1.88-.22-2.45a8.9,8.9,0,0,0-.34-1.49,4.19,4.19,0,0,0-.63-1.18A1.1,1.1,0,0,0,150,12a1.22,1.22,0,0,0-.75.26,1.16,1.16,0,0,0-.45.7,1.37,1.37,0,0,1,.37.72,3.79,3.79,0,0,1,.11.82,2.43,2.43,0,0,1-.43,1.42,1.2,1.2,0,0,1-1,.62,1,1,0,0,1-1-.65,3.67,3.67,0,0,1-.34-1.65,4.42,4.42,0,0,1,.33-1.76,4.12,4.12,0,0,1,.87-1.3,4,4,0,0,1,1.21-.8,3.56,3.56,0,0,1,1.34-.27,3.24,3.24,0,0,1,1.64.43,3.8,3.8,0,0,1,1.17,1.08q1.53,2.24,1.53,7.1v4.16a13,13,0,0,0,.12,2.19c.09.4.27.59.55.59h.87V27.1a6.58,6.58,0,0,1-2.69.93.84.84,0,0,1-.53-.16,1.11,1.11,0,0,1-.32-.54,5.56,5.56,0,0,1-.16-1.06c0-.45-.05-1-.05-1.73h-.08a6.43,6.43,0,0,1-1.58,2.56,3.07,3.07,0,0,1-2.13.93A2.16,2.16,0,0,1,146.74,27,5.52,5.52,0,0,1,146,23.94Zm3.79,1.76a1.45,1.45,0,0,0,.9-.44,3.36,3.36,0,0,0,.86-1.26,6.67,6.67,0,0,0,.41-1.28,8.8,8.8,0,0,0,.19-2c0-.26,0-.54,0-.85s0-.61-.06-.91a8.52,8.52,0,0,0-1.67.75,4.38,4.38,0,0,0-1.07.88,2.84,2.84,0,0,0-.58,1.1,5.18,5.18,0,0,0-.18,1.43,3.68,3.68,0,0,0,.39,2A1.08,1.08,0,0,0,149.83,25.7Z" fill="#f93"/><path d="M156.17,10.88l1.9-.45.23-4L160.5,6v4.48H163v2.08H160.5V23c0,.72,0,1.22,0,1.48a4.57,4.57,0,0,0,.08.66.53.53,0,0,0,.21.29,1.08,1.08,0,0,0,.51.09h1.35v1.41a12.62,12.62,0,0,1-2,.85,4.91,4.91,0,0,1-1.37.27c-.58,0-.95-.39-1.12-1.18a5.68,5.68,0,0,1-.12-1c0-.39,0-1,0-1.81V12.51h-1.88Z" fill="#f93"/><path d="M166.4,19.52a14.14,14.14,0,0,0,.39,3.62c.41,1.51,1.12,2.27,2.12,2.27a2.83,2.83,0,0,0,1.71-.63A4.81,4.81,0,0,0,172,22.85l1.05,1.34a8,8,0,0,1-1.83,2.72A3.88,3.88,0,0,1,168.43,28a3.48,3.48,0,0,1-2.45-.94,6.07,6.07,0,0,1-1.55-2.77,12.31,12.31,0,0,1-.43-2.19,23.79,23.79,0,0,1-.13-2.64,15.59,15.59,0,0,1,1.24-6.93,3.85,3.85,0,0,1,3.53-2.45,3.56,3.56,0,0,1,1.9.53,4.51,4.51,0,0,1,1.44,1.5,8.52,8.52,0,0,1,.91,2.4,15,15,0,0,1,.32,3.22c0,.24,0,.46,0,.69s0,.58,0,1.07Zm2.2-7.2q-2,0-2.18,5.15h4.25v-.83a7.56,7.56,0,0,0-.54-3.2A1.67,1.67,0,0,0,168.6,12.32Zm0-7.49c.2-.51.37-.93.54-1.26a5.82,5.82,0,0,1,.45-.79,1.31,1.31,0,0,1,.45-.41,1,1,0,0,1,.5-.13.9.9,0,0,1,.85.4,1.9,1.9,0,0,1,.23.94,2.23,2.23,0,0,1-.35,1.08A14.86,14.86,0,0,1,170,6.37l-.74.89h-1.6Z" fill="#f93"/><path d="M179.35,16.19a32.17,32.17,0,0,1,.41-5.44,13.92,13.92,0,0,1,1.2-3.9,4.17,4.17,0,0,1,1.71-1.95,4.91,4.91,0,0,1,2.39-.55,6.69,6.69,0,0,1,1.34.13,3.31,3.31,0,0,1,1.06.42,3.46,3.46,0,0,1,.88.76,9,9,0,0,1,.82,1.19,14.28,14.28,0,0,1,1.19,3.9,32.17,32.17,0,0,1,.41,5.44,31,31,0,0,1-.42,5.44,14.73,14.73,0,0,1-1.18,3.91,8.87,8.87,0,0,1-.82,1.18,3.51,3.51,0,0,1-.88.77,3.56,3.56,0,0,1-1.06.42,6.74,6.74,0,0,1-1.34.12,5,5,0,0,1-2.39-.54A4.17,4.17,0,0,1,181,25.54a14,14,0,0,1-1.2-3.91A32.08,32.08,0,0,1,179.35,16.19Zm8.66,0a24,24,0,0,0-.87-7.61,6.25,6.25,0,0,0-.38-.88,2.78,2.78,0,0,0-.43-.63,1.36,1.36,0,0,0-.54-.38,1.8,1.8,0,0,0-.73-.13,1.89,1.89,0,0,0-1.24.5A2.86,2.86,0,0,0,183,8.58a24,24,0,0,0-.87,7.61,42.07,42.07,0,0,0,.21,4.53,12.87,12.87,0,0,0,.66,3.09,3,3,0,0,0,.83,1.52,1.84,1.84,0,0,0,1.26.49,2,2,0,0,0,.73-.12,1.5,1.5,0,0,0,.54-.39,3,3,0,0,0,.43-.62,6.81,6.81,0,0,0,.38-.88A23.88,23.88,0,0,0,188,16.19Z" fill="#f93"/><path d="M195.09,16.48a4.72,4.72,0,0,1,1.45-1.86,3.3,3.3,0,0,1,2-.67,3,3,0,0,1,1.69.51,4.49,4.49,0,0,1,1.29,1.43,7.79,7.79,0,0,1,.84,2.22,13,13,0,0,1,.3,2.88,9.26,9.26,0,0,1-1.24,5.17A3.84,3.84,0,0,1,198,28a4.32,4.32,0,0,1-4.09-2.73q-1.32-2.75-1.32-8.47c0-4.09.45-7.2,1.37-9.33s2.31-3.18,4.18-3.18a3.52,3.52,0,0,1,1.62.38A3.7,3.7,0,0,1,201,5.81a5.89,5.89,0,0,1,.81,1.71,7.87,7.87,0,0,1,.29,2.18,5.07,5.07,0,0,1-.36,2.11,1.24,1.24,0,0,1-1.21.77,1.32,1.32,0,0,1-1.18-.61,2.82,2.82,0,0,1-.38-1.54A2.57,2.57,0,0,1,199.34,9a1.09,1.09,0,0,1,.93-.53,2.22,2.22,0,0,0-.65-1.41,1.8,1.8,0,0,0-1.3-.51,2.69,2.69,0,0,0-2.55,2A18.74,18.74,0,0,0,195,15v.76c0,.22,0,.46,0,.74ZM200,21q0-4.72-2.28-4.73A1.84,1.84,0,0,0,196,17.44a8,8,0,0,0-.61,3.55,8.19,8.19,0,0,0,.61,3.6,1.84,1.84,0,0,0,1.67,1.2Q200,25.79,200,21Z" fill="#f93"/><path d="M207.17,4.35h1.69L206,28h-1.68Z" fill="#f93"/><path d="M210.62,16.19a32.25,32.25,0,0,1,.4-5.44,13.92,13.92,0,0,1,1.2-3.9,4.17,4.17,0,0,1,1.71-1.95,4.91,4.91,0,0,1,2.39-.55,6.69,6.69,0,0,1,1.34.13,3.46,3.46,0,0,1,1.07.42,3.84,3.84,0,0,1,.88.76,8.17,8.17,0,0,1,.81,1.19,13.92,13.92,0,0,1,1.2,3.9,32.25,32.25,0,0,1,.4,5.44,32.08,32.08,0,0,1-.41,5.44,15.09,15.09,0,0,1-1.19,3.91,8,8,0,0,1-.81,1.18,3.89,3.89,0,0,1-.88.77,3.73,3.73,0,0,1-1.07.42,6.74,6.74,0,0,1-1.34.12,5,5,0,0,1-2.39-.54,4.17,4.17,0,0,1-1.71-1.95,14,14,0,0,1-1.2-3.91A32.17,32.17,0,0,1,210.62,16.19Zm8.66,0a24,24,0,0,0-.87-7.61A7.59,7.59,0,0,0,218,7.7a2.78,2.78,0,0,0-.43-.63,1.36,1.36,0,0,0-.54-.38,1.8,1.8,0,0,0-.73-.13,1.89,1.89,0,0,0-1.24.5,2.86,2.86,0,0,0-.85,1.52,24,24,0,0,0-.87,7.61,42.07,42.07,0,0,0,.21,4.53,12.87,12.87,0,0,0,.66,3.09,3,3,0,0,0,.83,1.52,1.85,1.85,0,0,0,1.26.49,2,2,0,0,0,.73-.12,1.5,1.5,0,0,0,.54-.39,3,3,0,0,0,.43-.62,8.44,8.44,0,0,0,.39-.88A23.88,23.88,0,0,0,219.28,16.19Z" fill="#f93"/><path d="M231.38,24.19l.46-4.09h1.65v7.61h-9.77V25.6a8.62,8.62,0,0,1,.53-3.06,14.29,14.29,0,0,1,1.3-2.63,25.48,25.48,0,0,1,1.7-2.41c.61-.76,1.18-1.54,1.7-2.32a13.66,13.66,0,0,0,1.31-2.44,7.21,7.21,0,0,0,.52-2.76,4.21,4.21,0,0,0-.67-2.54,2.16,2.16,0,0,0-1.86-.91,2,2,0,0,0-1.67.77,4.87,4.87,0,0,0-.75,2.33,1.07,1.07,0,0,1,.95.53,2.6,2.6,0,0,1,.33,1.39,2.33,2.33,0,0,1-.39,1.44,1.22,1.22,0,0,1-1,.51,1.25,1.25,0,0,1-.66-.17,1.64,1.64,0,0,1-.55-.56,3.25,3.25,0,0,1-.38-1,7.12,7.12,0,0,1-.14-1.51,9,9,0,0,1,.31-2.38,5.72,5.72,0,0,1,.9-1.89,4.42,4.42,0,0,1,1.43-1.23,4,4,0,0,1,1.91-.45,4.15,4.15,0,0,1,1.92.45A4.58,4.58,0,0,1,232,6a6.29,6.29,0,0,1,1,2,9,9,0,0,1,.35,2.59,9.63,9.63,0,0,1-.55,3.36,13.1,13.1,0,0,1-1.38,2.75A17.17,17.17,0,0,1,229.59,19L227.8,20.9a15.61,15.61,0,0,0-1.38,1.69,2.81,2.81,0,0,0-.55,1.6Z" fill="#f93"/><path d="M34.94,35.35H4.5A4.5,4.5,0,0,1,.61,28.61L15.83,2.25A4.44,4.44,0,0,1,19.72,0h0a4.44,4.44,0,0,1,3.89,2.25L38.83,28.61a4.5,4.5,0,0,1-3.89,6.74ZM17.85,3.41,2.63,29.77A2.17,2.17,0,0,0,4.5,33H34.94a2.17,2.17,0,0,0,1.87-3.25L21.59,3.41a2.16,2.16,0,0,0-3.74,0Z" fill="#f93"/><path d="M19.73,9.54h0a2.81,2.81,0,0,1,2.79,3.15L21.29,23a1.58,1.58,0,0,1-1.57,1.39h0A1.58,1.58,0,0,1,18.15,23L16.93,12.68A2.82,2.82,0,0,1,19.73,9.54Z" fill="#f93"/><path d="M18.13,29.43a2.24,2.24,0,0,1,1.6-3.83,2.25,2.25,0,1,1,0,4.49A2.17,2.17,0,0,1,18.13,29.43Z" fill="#f93"/><path d="M271.5,35.35H241.06a4.5,4.5,0,0,1-3.89-6.74L252.39,2.25A4.44,4.44,0,0,1,256.28,0h0a4.44,4.44,0,0,1,3.89,2.25l15.22,26.36a4.5,4.5,0,0,1-3.89,6.74ZM254.41,3.41,239.19,29.77A2.17,2.17,0,0,0,241.06,33H271.5a2.17,2.17,0,0,0,1.87-3.25L258.15,3.41a2.16,2.16,0,0,0-3.74,0Z" fill="#f93"/><path d="M256.29,9.54h0a2.81,2.81,0,0,1,2.79,3.15L257.85,23a1.58,1.58,0,0,1-1.57,1.39h0A1.58,1.58,0,0,1,254.71,23l-1.22-10.34A2.82,2.82,0,0,1,256.29,9.54Z" fill="#f93"/><path d="M254.69,29.43a2.24,2.24,0,0,1,1.6-3.83,2.25,2.25,0,1,1,0,4.49A2.17,2.17,0,0,1,254.69,29.43Z" fill="#f93"/></svg>