<svg id="Layer_1" data-name="Layer 1" xmlns="http://www.w3.org/2000/svg" viewBox="0 0 276 35.35"><title>insc-2</title><path d="M51.08,25.18l1.82.68v1.85H46.75V25.86l1.81-.68V7.2l-1.81-.67V4.67H52.9V6.53l-1.82.67Z" fill="#f93"/><path d="M55.68,12.83l-1.49-.61V10.43h3.36l.43,3.2h.08a6.47,6.47,0,0,1,1.55-2.57,3,3,0,0,1,2.12-1,2.29,2.29,0,0,1,1.39.45,3.09,3.09,0,0,1,1,1.28,8.82,8.82,0,0,1,.55,2.51c.11,1.08.16,2.54.16,4.37v6.59l1.49.61v1.79H61.07V25.92l1.3-.61V19.14c0-1.28,0-2.28-.07-3a8.32,8.32,0,0,0-.24-1.71,2.28,2.28,0,0,0-.58-1.15,1.32,1.32,0,0,0-.87-.32A1.91,1.91,0,0,0,59,14a7.63,7.63,0,0,0-.87,3.75v7.58l1.3.61v1.79H54.19V25.92l1.49-.61Z" fill="#f93"/><path d="M71.32,26.08a2.49,2.49,0,0,0,.91-.16,2.41,2.41,0,0,0,.74-.45,2,2,0,0,0,.51-.72,2.5,2.5,0,0,0,.18-1,2.46,2.46,0,0,0-.24-1.12,2.93,2.93,0,0,0-.64-.84,4.85,4.85,0,0,0-.89-.62l-1-.53A6.59,6.59,0,0,1,69.74,20a4.64,4.64,0,0,1-1-1.09A5.71,5.71,0,0,1,68,17.31a7.31,7.31,0,0,1-.27-2.11,6.19,6.19,0,0,1,1-3.7,3.35,3.35,0,0,1,2.88-1.39,3.91,3.91,0,0,1,1.6.32,3.46,3.46,0,0,1,1.22.91,4.4,4.4,0,0,1,.79,1.41,5.68,5.68,0,0,1,.28,1.78,3.19,3.19,0,0,1-.36,1.69,1.1,1.1,0,0,1-1,.58,1.09,1.09,0,0,1-1-.5,1.92,1.92,0,0,1-.35-1.16,2.78,2.78,0,0,1,.19-1,2,2,0,0,1,.5-.76,2.32,2.32,0,0,0-.72-.94,1.87,1.87,0,0,0-1.13-.34,1.56,1.56,0,0,0-1.36.63,3,3,0,0,0-.44,1.74,3,3,0,0,0,.5,1.91,4.06,4.06,0,0,0,1.36,1c.51.25,1,.52,1.52.8a5.64,5.64,0,0,1,1.35,1,4.51,4.51,0,0,1,.94,1.49,5.65,5.65,0,0,1,.36,2.13A6.38,6.38,0,0,1,75.56,25a4.41,4.41,0,0,1-1,1.63,4.2,4.2,0,0,1-1.48,1,4.86,4.86,0,0,1-1.84.35,3.72,3.72,0,0,1-2.89-1.12,4.29,4.29,0,0,1-1-3,4.08,4.08,0,0,1,.44-2.05,1.26,1.26,0,0,1,1.07-.73,1.17,1.17,0,0,1,.86.43,1.78,1.78,0,0,1,.39,1.23,3.05,3.05,0,0,1-.21,1.12,2.11,2.11,0,0,1-.48.8,2.71,2.71,0,0,0,.63,1A1.74,1.74,0,0,0,71.32,26.08Z" fill="#f93"/><path d="M82.4,10.11a3.89,3.89,0,0,1,1.64.35,4,4,0,0,1,1.31,1,5,5,0,0,1,.86,1.59,6.61,6.61,0,0,1,.31,2,4.23,4.23,0,0,1-.47,2.2,1.34,1.34,0,0,1-1.14.75,1,1,0,0,1-.64-.21,1.75,1.75,0,0,1-.41-.54,2.59,2.59,0,0,1-.23-.76,4.57,4.57,0,0,1-.07-.83,3.53,3.53,0,0,1,.24-1.37,1.63,1.63,0,0,1,.72-.84,2.18,2.18,0,0,0-.81-.92,2.13,2.13,0,0,0-1.22-.36,1.76,1.76,0,0,0-1.09.36,2.67,2.67,0,0,0-.8,1.13,8.23,8.23,0,0,0-.5,2.08A23.83,23.83,0,0,0,79.92,19a21.13,21.13,0,0,0,.14,2.72,9.88,9.88,0,0,0,.37,1.72,3.94,3.94,0,0,0,.79,1.46,1.6,1.6,0,0,0,1.24.53,2.33,2.33,0,0,0,.82-.16,3.42,3.42,0,0,0,.85-.47,3.87,3.87,0,0,0,.79-.78,5.44,5.44,0,0,0,.67-1.15l1,1.34a7,7,0,0,1-2.1,3A4.17,4.17,0,0,1,82,28a3.41,3.41,0,0,1-2.43-.91A6,6,0,0,1,78,24.45a13.74,13.74,0,0,1-.51-2.35,19.85,19.85,0,0,1-.19-2.87,18.79,18.79,0,0,1,.35-3.76,10.24,10.24,0,0,1,1-2.88,5.08,5.08,0,0,1,1.59-1.84A3.8,3.8,0,0,1,82.4,10.11Z" fill="#f93"/><path d="M93.53,12.77c-.11,0-.23.08-.36.25a4.16,4.16,0,0,0-.38.64,8.76,8.76,0,0,0-.33.82c-.1.29-.17.54-.22.75-.16.75-.29,1.5-.41,2.26a19.88,19.88,0,0,0-.17,2.8v5l2.09.61v1.79h-6V25.92l1.49-.61v-13l-1.49-.61V10.43h3.37l.42,4.23h.08a10.09,10.09,0,0,1,1.19-3.38,2.06,2.06,0,0,1,1.67-1.17,1.46,1.46,0,0,1,1.26.79A3.87,3.87,0,0,1,96.2,13a4.18,4.18,0,0,1-.35,1.75,1.09,1.09,0,0,1-1,.78,1.15,1.15,0,0,1-1.11-.59,2.64,2.64,0,0,1-.32-1.3,2,2,0,0,1,0-.37C93.47,13.17,93.5,13,93.53,12.77Z" fill="#f93"/><path d="M96.92,12.22V10.43h3.94V25.31l1.49.61v1.79H96.92V25.92l1.49-.61V12.83Zm1.27-6.65a3.3,3.3,0,0,1,.38-1.67,1.18,1.18,0,0,1,1.05-.64,1.22,1.22,0,0,1,1.07.64,3.3,3.3,0,0,1,.38,1.67,3.2,3.2,0,0,1-.37,1.65,1.2,1.2,0,0,1-1.08.62,1.18,1.18,0,0,1-1.06-.62A3.3,3.3,0,0,1,98.19,5.57Z" fill="#f93"/><path d="M107.59,34.43a2.23,2.23,0,0,1-1.76-.89l.6-1.35a1.54,1.54,0,0,0,1.14.64.72.72,0,0,0,.81-.83.89.89,0,0,0-.24-.66.85.85,0,0,0-.63-.24,2.58,2.58,0,0,0-.46,0,1.28,1.28,0,0,0-.43.15l-.33-.93L107.4,28q-2.27-.39-3.27-3.52a13.74,13.74,0,0,1-.51-2.35,19.85,19.85,0,0,1-.19-2.87,18.79,18.79,0,0,1,.35-3.76,10.24,10.24,0,0,1,1-2.88,5.08,5.08,0,0,1,1.59-1.84,3.8,3.8,0,0,1,2.15-.64,3.89,3.89,0,0,1,1.64.35,4,4,0,0,1,1.31,1,5,5,0,0,1,.86,1.59,6.61,6.61,0,0,1,.3,2,4.24,4.24,0,0,1-.46,2.2,1.34,1.34,0,0,1-1.14.75,1,1,0,0,1-.64-.21,1.61,1.61,0,0,1-.41-.54,2.94,2.94,0,0,1-.24-.76,5.69,5.69,0,0,1-.06-.83,3.53,3.53,0,0,1,.24-1.37,1.63,1.63,0,0,1,.72-.84,2.18,2.18,0,0,0-.81-.92,2.16,2.16,0,0,0-1.22-.36,1.76,1.76,0,0,0-1.09.36,2.67,2.67,0,0,0-.8,1.13,8.23,8.23,0,0,0-.5,2.08A23.83,23.83,0,0,0,106,19a21.13,21.13,0,0,0,.14,2.72,11,11,0,0,0,.36,1.72,4.1,4.1,0,0,0,.8,1.46,1.6,1.6,0,0,0,1.23.53,2.34,2.34,0,0,0,.83-.16,3.42,3.42,0,0,0,.85-.47A4.14,4.14,0,0,0,111,24a5.44,5.44,0,0,0,.67-1.15l1,1.34A7.77,7.77,0,0,1,111,26.85a4.09,4.09,0,0,1-2.08,1.09l-.52,1.47,0,.09a1.74,1.74,0,0,1,1.51.61,3.29,3.29,0,0,1,.2,2.79,2.38,2.38,0,0,1-.6.84,2.5,2.5,0,0,1-.88.52A3.36,3.36,0,0,1,107.59,34.43Z" fill="#f93"/><path d="M124,19.07a19.77,19.77,0,0,1-.36,3.86,10.17,10.17,0,0,1-1,3,4,4,0,0,1-1.53,1.6,4.86,4.86,0,0,1-4.21,0,4,4,0,0,1-1.53-1.6,10.17,10.17,0,0,1-1-3,19.77,19.77,0,0,1-.36-3.86,19.67,19.67,0,0,1,.36-3.85,10.14,10.14,0,0,1,1-3,4,4,0,0,1,1.53-1.6,4.86,4.86,0,0,1,4.21,0,4.08,4.08,0,0,1,1.53,1.6,10.14,10.14,0,0,1,1,3A19.67,19.67,0,0,1,124,19.07ZM115.17,7.74a7.22,7.22,0,0,1,.71-3.48,2,2,0,0,1,1.74-1.16,1.4,1.4,0,0,1,.85.28,4.87,4.87,0,0,1,.68.6c.21.23.41.43.61.61a1.08,1.08,0,0,0,1.56-.14,2.65,2.65,0,0,0,.38-1.19h1.16q-.4,4.85-2.45,4.84a1.27,1.27,0,0,1-.84-.28,5.51,5.51,0,0,1-.68-.6q-.31-.34-.63-.63a1,1,0,0,0-.68-.29,1,1,0,0,0-.87.39,2.24,2.24,0,0,0-.38,1Zm2.09,16.87a1.84,1.84,0,0,0,3.51,0,16.77,16.77,0,0,0,.62-5.54,16.7,16.7,0,0,0-.62-5.53,1.84,1.84,0,0,0-3.51,0,16.7,16.7,0,0,0-.62,5.53A16.77,16.77,0,0,0,117.26,24.61Z" fill="#f93"/><path d="M128,19.52a14.14,14.14,0,0,0,.39,3.62c.41,1.51,1.12,2.27,2.13,2.27a2.8,2.8,0,0,0,1.7-.63,4.91,4.91,0,0,0,1.43-1.93l1,1.34a8.17,8.17,0,0,1-1.82,2.72A3.9,3.9,0,0,1,130.05,28a3.46,3.46,0,0,1-2.44-.94,6,6,0,0,1-1.56-2.77,13.31,13.31,0,0,1-.42-2.19,23.66,23.66,0,0,1-.14-2.64,15.59,15.59,0,0,1,1.24-6.93,3.85,3.85,0,0,1,3.54-2.45,3.55,3.55,0,0,1,1.89.53,4.33,4.33,0,0,1,1.44,1.5,8,8,0,0,1,.91,2.4,15,15,0,0,1,.32,3.22c0,.24,0,.46,0,.69s0,.58,0,1.07Zm2.21-7.2q-2,0-2.19,5.15h4.26v-.83a7.56,7.56,0,0,0-.54-3.2A1.68,1.68,0,0,0,130.23,12.32Z" fill="#f93"/><path d="M140.21,26.08a2.47,2.47,0,0,0,1.65-.61,2,2,0,0,0,.5-.72,2.5,2.5,0,0,0,.18-1,2.46,2.46,0,0,0-.24-1.12,2.76,2.76,0,0,0-.64-.84,5.13,5.13,0,0,0-.88-.62l-1-.53a6.59,6.59,0,0,1-1.17-.72,4.9,4.9,0,0,1-1-1.09,5.42,5.42,0,0,1-.72-1.55,7.31,7.31,0,0,1-.27-2.11,6.19,6.19,0,0,1,1-3.7,3.35,3.35,0,0,1,2.88-1.39,4,4,0,0,1,1.61.32,3.55,3.55,0,0,1,1.22.91,4.58,4.58,0,0,1,.78,1.41,5.4,5.4,0,0,1,.28,1.78,3.19,3.19,0,0,1-.36,1.69,1.14,1.14,0,0,1-1.94.08,2,2,0,0,1-.35-1.16,2.79,2.79,0,0,1,.2-1,1.77,1.77,0,0,1,.5-.76,2.25,2.25,0,0,0-.73-.94,1.87,1.87,0,0,0-1.13-.34,1.54,1.54,0,0,0-1.35.63,2.93,2.93,0,0,0-.45,1.74,3,3,0,0,0,.51,1.91,3.92,3.92,0,0,0,1.35,1c.51.25,1,.52,1.53.8a5.59,5.59,0,0,1,1.34,1,4.7,4.7,0,0,1,.95,1.49,5.65,5.65,0,0,1,.36,2.13,6.38,6.38,0,0,1-.36,2.22,4.57,4.57,0,0,1-1,1.63,4.2,4.2,0,0,1-1.48,1,4.81,4.81,0,0,1-1.83.35,3.72,3.72,0,0,1-2.89-1.12,4.3,4.3,0,0,1-1-3,4,4,0,0,1,.45-2.05,1.25,1.25,0,0,1,1.06-.73,1.14,1.14,0,0,1,.86.43,1.78,1.78,0,0,1,.4,1.23,2.87,2.87,0,0,1-.22,1.12,2.11,2.11,0,0,1-.48.8,2.74,2.74,0,0,0,.64,1A1.71,1.71,0,0,0,140.21,26.08Z" fill="#f93"/><path d="M150.62,23.94a6.85,6.85,0,0,1,.36-2.32,5,5,0,0,1,1.1-1.78,6.45,6.45,0,0,1,1.9-1.31,16.55,16.55,0,0,1,2.73-1c-.06-1.07-.13-1.88-.22-2.45a8.9,8.9,0,0,0-.34-1.49,4.46,4.46,0,0,0-.62-1.18,1.13,1.13,0,0,0-.92-.45,1.24,1.24,0,0,0-.75.26,1.26,1.26,0,0,0-.45.7,1.46,1.46,0,0,1,.38.72,3.72,3.72,0,0,1,.1.82,2.49,2.49,0,0,1-.42,1.42,1.23,1.23,0,0,1-1,.62,1,1,0,0,1-1-.65,3.67,3.67,0,0,1-.33-1.65,4.6,4.6,0,0,1,.32-1.76,4,4,0,0,1,.88-1.3,3.94,3.94,0,0,1,1.2-.8,3.61,3.61,0,0,1,1.35-.27,3.2,3.2,0,0,1,1.63.43,3.8,3.8,0,0,1,1.17,1.08q1.53,2.24,1.53,7.1v4.16a13,13,0,0,0,.12,2.19c.09.4.27.59.55.59h.87V27.1a6.59,6.59,0,0,1-2.68.93.8.8,0,0,1-.53-.16,1,1,0,0,1-.32-.54,4.77,4.77,0,0,1-.17-1.06c0-.45,0-1,0-1.73H157a6.45,6.45,0,0,1-1.59,2.56,3.07,3.07,0,0,1-2.13.93A2.17,2.17,0,0,1,151.32,27,5.61,5.61,0,0,1,150.62,23.94Zm3.79,1.76a1.45,1.45,0,0,0,.9-.44,3.36,3.36,0,0,0,.86-1.26,6.67,6.67,0,0,0,.41-1.28,8.8,8.8,0,0,0,.19-2c0-.26,0-.54,0-.85s0-.61-.05-.91a8.91,8.91,0,0,0-1.68.75,4.38,4.38,0,0,0-1.07.88,3,3,0,0,0-.58,1.1,5.19,5.19,0,0,0-.17,1.43,3.7,3.7,0,0,0,.38,2A1.08,1.08,0,0,0,154.41,25.7Z" fill="#f93"/><path d="M160.76,10.88l1.89-.45.23-4L165.09,6v4.48h2.47v2.08h-2.47V23c0,.72,0,1.22,0,1.48a3.6,3.6,0,0,0,.07.66.5.5,0,0,0,.22.29,1,1,0,0,0,.5.09h1.35v1.41a12.62,12.62,0,0,1-2,.85,4.86,4.86,0,0,1-1.36.27c-.58,0-1-.39-1.12-1.18a4.76,4.76,0,0,1-.13-1c0-.39,0-1,0-1.81V12.51h-1.87Z" fill="#f93"/><path d="M171,19.52a14.14,14.14,0,0,0,.39,3.62c.41,1.51,1.12,2.27,2.13,2.27a2.8,2.8,0,0,0,1.7-.63,4.91,4.91,0,0,0,1.43-1.93l1,1.34a8,8,0,0,1-1.83,2.72A3.88,3.88,0,0,1,173,28a3.44,3.44,0,0,1-2.44-.94A6,6,0,0,1,169,24.32a13.27,13.27,0,0,1-.43-2.19,23.79,23.79,0,0,1-.13-2.64,15.59,15.59,0,0,1,1.24-6.93,3.85,3.85,0,0,1,3.53-2.45,3.56,3.56,0,0,1,1.9.53,4.33,4.33,0,0,1,1.44,1.5,8.23,8.23,0,0,1,.91,2.4,15,15,0,0,1,.32,3.22c0,.24,0,.46,0,.69s0,.58-.05,1.07Zm2.21-7.2q-2,0-2.19,5.15h4.25v-.83a7.56,7.56,0,0,0-.54-3.2A1.67,1.67,0,0,0,173.19,12.32Zm0-7.49c.19-.51.37-.93.53-1.26a5.82,5.82,0,0,1,.45-.79,1.31,1.31,0,0,1,.45-.41,1,1,0,0,1,.5-.13.89.89,0,0,1,.85.4,1.9,1.9,0,0,1,.23.94,2.13,2.13,0,0,1-.35,1.08,14.86,14.86,0,0,1-1.27,1.71l-.74.89h-1.6Z" fill="#f93"/><path d="M193.29,10.4a9.27,9.27,0,0,1-.18,1.87,5.92,5.92,0,0,1-.54,1.57A4.35,4.35,0,0,1,191.7,15a2.93,2.93,0,0,1-1.15.67v.13a3.75,3.75,0,0,1,2.26,2,8.2,8.2,0,0,1,.7,3.49,9.31,9.31,0,0,1-.41,2.88,6.35,6.35,0,0,1-1.11,2.1,4.81,4.81,0,0,1-1.64,1.29,4.41,4.41,0,0,1-2,.45A4,4,0,0,1,185,26.35a5.49,5.49,0,0,1-.88-1.87,8.84,8.84,0,0,1-.3-2.37,5.92,5.92,0,0,1,.41-2.38,1.36,1.36,0,0,1,1.29-.91,1.18,1.18,0,0,1,1.06.57,2.88,2.88,0,0,1,0,2.79,1.06,1.06,0,0,1-.93.54,4.73,4.73,0,0,0,.75,2.32,2,2,0,0,0,1.69.78,2.28,2.28,0,0,0,2-1,5.29,5.29,0,0,0,.72-3,6.14,6.14,0,0,0-.94-3.63,3,3,0,0,0-2.58-1.33v-2a3.09,3.09,0,0,0,1.42-.33,3.13,3.13,0,0,0,1.09-1,4.9,4.9,0,0,0,.7-1.51,6.89,6.89,0,0,0,.25-1.93,4.3,4.3,0,0,0-.67-2.66,2.16,2.16,0,0,0-1.81-.86c-1.37,0-2.15.93-2.32,2.78a1.06,1.06,0,0,1,.94.51,2.39,2.39,0,0,1,.34,1.35,2.8,2.8,0,0,1-.33,1.39,1.11,1.11,0,0,1-1.06.59,1.48,1.48,0,0,1-1.39-.94A5.41,5.41,0,0,1,184,9.82a7.39,7.39,0,0,1,.32-2.22,5.33,5.33,0,0,1,.91-1.74,4,4,0,0,1,3.26-1.54,4.26,4.26,0,0,1,1.92.43A4.49,4.49,0,0,1,191.94,6a6,6,0,0,1,1,1.92A8.48,8.48,0,0,1,193.29,10.4Z" fill="#f93"/><path d="M197.62,7.94h-2.45V5.82a4.16,4.16,0,0,0,.8-.09,4.87,4.87,0,0,0,.89-.29,4.09,4.09,0,0,0,.79-.46,1.66,1.66,0,0,0,.53-.63h1.9v21l2.07.61v1.79h-7V25.92l2.45-.61Z" fill="#f93"/><path d="M206.15,4.35h1.68L205,28h-1.68Z" fill="#f93"/><path d="M209.59,16.19a32.17,32.17,0,0,1,.41-5.44,13.92,13.92,0,0,1,1.2-3.9,4.17,4.17,0,0,1,1.71-1.95,4.87,4.87,0,0,1,2.38-.55,6.79,6.79,0,0,1,1.35.13,3.41,3.41,0,0,1,1.06.42,3.46,3.46,0,0,1,.88.76,8.17,8.17,0,0,1,.81,1.19,13.92,13.92,0,0,1,1.2,3.9,32.17,32.17,0,0,1,.41,5.44,31,31,0,0,1-.42,5.44,14.71,14.71,0,0,1-1.19,3.91,8,8,0,0,1-.81,1.18,3.51,3.51,0,0,1-.88.77,3.67,3.67,0,0,1-1.06.42,6.84,6.84,0,0,1-1.35.12,5,5,0,0,1-2.38-.54,4.17,4.17,0,0,1-1.71-1.95,14,14,0,0,1-1.2-3.91A32.08,32.08,0,0,1,209.59,16.19Zm8.66,0a24,24,0,0,0-.87-7.61c-.13-.34-.26-.64-.38-.88a3.15,3.15,0,0,0-.43-.63,1.44,1.44,0,0,0-.54-.38,1.85,1.85,0,0,0-.74-.13,1.87,1.87,0,0,0-1.23.5,2.86,2.86,0,0,0-.85,1.52,24,24,0,0,0-.87,7.61,42.07,42.07,0,0,0,.21,4.53,12.87,12.87,0,0,0,.66,3.09,3,3,0,0,0,.83,1.52,1.83,1.83,0,0,0,1.25.49,2,2,0,0,0,.74-.12,1.59,1.59,0,0,0,.54-.39,3.37,3.37,0,0,0,.43-.62c.12-.25.25-.54.38-.88A23.88,23.88,0,0,0,218.25,16.19Z" fill="#f93"/><path d="M225.1,7.94h-2.46V5.82a4.16,4.16,0,0,0,.8-.09,4.63,4.63,0,0,0,.89-.29,3.81,3.81,0,0,0,.79-.46,1.79,1.79,0,0,0,.54-.63h1.89v21l2.07.61v1.79h-7V25.92l2.46-.61Z" fill="#f93"/><path d="M34.94,35.35H4.5A4.5,4.5,0,0,1,.61,28.61L15.83,2.25A4.44,4.44,0,0,1,19.72,0h0a4.44,4.44,0,0,1,3.89,2.25L38.83,28.61a4.5,4.5,0,0,1-3.89,6.74ZM17.85,3.41,2.63,29.77A2.17,2.17,0,0,0,4.5,33H34.94a2.17,2.17,0,0,0,1.87-3.25L21.59,3.41a2.16,2.16,0,0,0-3.74,0Z" fill="#f93"/><path d="M19.73,9.54h0a2.81,2.81,0,0,1,2.79,3.15L21.29,23a1.58,1.58,0,0,1-1.57,1.39h0A1.58,1.58,0,0,1,18.15,23L16.93,12.68A2.82,2.82,0,0,1,19.73,9.54Z" fill="#f93"/><path d="M18.13,29.43a2.24,2.24,0,0,1,1.6-3.83,2.25,2.25,0,1,1,0,4.49A2.17,2.17,0,0,1,18.13,29.43Z" fill="#f93"/><path d="M271.5,35.35H241.06a4.5,4.5,0,0,1-3.89-6.74L252.39,2.25A4.44,4.44,0,0,1,256.28,0h0a4.44,4.44,0,0,1,3.89,2.25l15.22,26.36a4.5,4.5,0,0,1-3.89,6.74ZM254.41,3.41,239.19,29.77A2.17,2.17,0,0,0,241.06,33H271.5a2.17,2.17,0,0,0,1.87-3.25L258.15,3.41a2.16,2.16,0,0,0-3.74,0Z" fill="#f93"/><path d="M256.29,9.54h0a2.81,2.81,0,0,1,2.79,3.15L257.85,23a1.58,1.58,0,0,1-1.57,1.39h0A1.58,1.58,0,0,1,254.71,23l-1.22-10.34A2.82,2.82,0,0,1,256.29,9.54Z" fill="#f93"/><path d="M254.69,29.43a2.24,2.24,0,0,1,1.6-3.83,2.25,2.25,0,1,1,0,4.49A2.17,2.17,0,0,1,254.69,29.43Z" fill="#f93"/></svg>