<svg id="Layer_1" data-name="Layer 1" xmlns="http://www.w3.org/2000/svg" viewBox="0 0 276 35.35"><title>ins-3</title><path d="M46.77,25.11l1.87.69v1.91H42.3V25.8l1.87-.69V6.56L42.3,5.87V4h6.34V5.87l-1.87.69Z" fill="#f93"/><path d="M51.51,12.37,50,11.74V9.89h3.47l.43,3.3H54a6.81,6.81,0,0,1,1.61-2.65,3.1,3.1,0,0,1,2.18-1,2.47,2.47,0,0,1,1.44.46,3.29,3.29,0,0,1,1,1.32,9.25,9.25,0,0,1,.56,2.6,44.53,44.53,0,0,1,.17,4.5v6.8l1.54.62v1.85H57.07V25.86l1.34-.62V18.87c0-1.32,0-2.35-.07-3.09A9.46,9.46,0,0,0,58.09,14a2.24,2.24,0,0,0-.6-1.19,1.31,1.31,0,0,0-.89-.33,1.94,1.94,0,0,0-1.66,1.06,7.73,7.73,0,0,0-.9,3.86v7.82l1.34.62v1.85H50V25.86l1.53-.62Z" fill="#f93"/><path d="M67.64,26a2.45,2.45,0,0,0,.94-.17,2.39,2.39,0,0,0,.77-.46,2,2,0,0,0,.51-.74,2.49,2.49,0,0,0,.19-1,2.47,2.47,0,0,0-.25-1.15,2.75,2.75,0,0,0-.65-.86,5,5,0,0,0-.92-.64l-1-.55a6.94,6.94,0,0,1-1.2-.74A4.73,4.73,0,0,1,65,18.59a5.92,5.92,0,0,1-.75-1.6,7.8,7.8,0,0,1-.28-2.18A6.37,6.37,0,0,1,65,11a3.44,3.44,0,0,1,3-1.44,4.07,4.07,0,0,1,1.66.33,3.53,3.53,0,0,1,1.25.94,4.36,4.36,0,0,1,.81,1.45A5.77,5.77,0,0,1,72,14.12a3.43,3.43,0,0,1-.37,1.75,1.19,1.19,0,0,1-2,.08,2,2,0,0,1-.36-1.21,2.79,2.79,0,0,1,.2-1.07,1.79,1.79,0,0,1,.51-.77,2.34,2.34,0,0,0-.74-1A1.93,1.93,0,0,0,68,11.57a1.62,1.62,0,0,0-1.4.65,3.11,3.11,0,0,0-.45,1.8,3.12,3.12,0,0,0,.51,2,4,4,0,0,0,1.4,1.07c.53.27,1.06.54,1.57.83A6,6,0,0,1,71,18.93a4.73,4.73,0,0,1,1,1.54,5.93,5.93,0,0,1,.37,2.19A6.81,6.81,0,0,1,72,25a4.85,4.85,0,0,1-1,1.68,4.43,4.43,0,0,1-1.52,1,5,5,0,0,1-1.9.36,3.86,3.86,0,0,1-3-1.15,4.46,4.46,0,0,1-1.07-3.14A4.15,4.15,0,0,1,64,21.64a1.3,1.3,0,0,1,1.1-.76,1.21,1.21,0,0,1,.89.45,1.81,1.81,0,0,1,.41,1.27,3.26,3.26,0,0,1-.22,1.15,2.42,2.42,0,0,1-.5.83,2.77,2.77,0,0,0,.66,1A1.74,1.74,0,0,0,67.64,26Z" fill="#f93"/><path d="M79.07,9.56a4,4,0,0,1,3,1.4A5.14,5.14,0,0,1,83,12.6a6.44,6.44,0,0,1,.32,2.11A4.34,4.34,0,0,1,82.83,17a1.38,1.38,0,0,1-1.17.78,1,1,0,0,1-.66-.22,1.64,1.64,0,0,1-.43-.56,3,3,0,0,1-.24-.77,5.07,5.07,0,0,1-.07-.86,3.57,3.57,0,0,1,.25-1.42,1.68,1.68,0,0,1,.75-.86,2.36,2.36,0,0,0-.84-1,2.25,2.25,0,0,0-1.25-.36A1.84,1.84,0,0,0,78,12.1a2.81,2.81,0,0,0-.83,1.18,8.36,8.36,0,0,0-.52,2.14,25.2,25.2,0,0,0-.18,3.28,22.5,22.5,0,0,0,.14,2.81A11.7,11.7,0,0,0,77,23.29a4.08,4.08,0,0,0,.82,1.5,1.63,1.63,0,0,0,1.27.55,2.47,2.47,0,0,0,.85-.17,3.63,3.63,0,0,0,.88-.48,4.17,4.17,0,0,0,.82-.81,4.94,4.94,0,0,0,.68-1.18l1.08,1.38a7.38,7.38,0,0,1-2.16,3.06,4.35,4.35,0,0,1-2.62.9,3.56,3.56,0,0,1-2.52-.94,6.21,6.21,0,0,1-1.59-2.75A14.68,14.68,0,0,1,74,21.92a21,21,0,0,1-.19-3,19.11,19.11,0,0,1,.36-3.88,10.89,10.89,0,0,1,1-3,5.14,5.14,0,0,1,1.64-1.9A3.87,3.87,0,0,1,79.07,9.56Z" fill="#f93"/><path d="M90.55,12.3c-.12,0-.25.09-.38.27a3.83,3.83,0,0,0-.39.66,8.16,8.16,0,0,0-.34.84c-.1.29-.17.55-.23.77-.16.77-.3,1.55-.42,2.33a19.59,19.59,0,0,0-.17,2.89v5.18l2.15.62v1.85H84.55V25.86l1.53-.62V11.87l-1.53-.62V9.89H88l.44,4.36h.08a10.31,10.31,0,0,1,1.22-3.48,2.12,2.12,0,0,1,1.73-1.21,1.51,1.51,0,0,1,1.29.81,3.92,3.92,0,0,1,.52,2.16,4.38,4.38,0,0,1-.36,1.8,1.13,1.13,0,0,1-1,.81,1.18,1.18,0,0,1-1.14-.61,2.77,2.77,0,0,1-.33-1.34,3.79,3.79,0,0,1,0-.38C90.48,12.71,90.51,12.54,90.55,12.3Z" fill="#f93"/><path d="M94,11.74V9.89h4.07V25.24l1.53.62v1.85H94V25.86l1.53-.62V12.37Zm1.31-6.86a3.34,3.34,0,0,1,.39-1.72,1.21,1.21,0,0,1,1.09-.66,1.24,1.24,0,0,1,1.1.66,3.34,3.34,0,0,1,.4,1.72,3.27,3.27,0,0,1-.39,1.7,1.24,1.24,0,0,1-1.11.64,1.23,1.23,0,0,1-1.1-.64A3.37,3.37,0,0,1,95.35,4.88Z" fill="#f93"/><path d="M105,34.64a2.28,2.28,0,0,1-1.81-.92l.62-1.39A1.59,1.59,0,0,0,105,33a.75.75,0,0,0,.84-.86.88.88,0,0,0-.25-.67.85.85,0,0,0-.65-.25,2.79,2.79,0,0,0-.47.05,1.26,1.26,0,0,0-.44.15l-.34-1L104.84,28q-2.32-.4-3.36-3.63a13.73,13.73,0,0,1-.53-2.43,21,21,0,0,1-.19-3,19.11,19.11,0,0,1,.36-3.88,11.23,11.23,0,0,1,1-3,5.25,5.25,0,0,1,1.65-1.9,4.06,4.06,0,0,1,3.91-.29A3.92,3.92,0,0,1,109,11a5,5,0,0,1,.89,1.64,6.72,6.72,0,0,1,.32,2.11,4.34,4.34,0,0,1-.48,2.26,1.38,1.38,0,0,1-1.18.78,1,1,0,0,1-.66-.22,1.62,1.62,0,0,1-.42-.56,2.39,2.39,0,0,1-.24-.77,5.07,5.07,0,0,1-.07-.86,3.57,3.57,0,0,1,.25-1.42,1.62,1.62,0,0,1,.74-.86,2.27,2.27,0,0,0-.83-1,2.29,2.29,0,0,0-1.26-.36,1.86,1.86,0,0,0-1.13.36,2.8,2.8,0,0,0-.82,1.18,8.36,8.36,0,0,0-.52,2.14,25.2,25.2,0,0,0-.18,3.28,22.5,22.5,0,0,0,.14,2.81,10.6,10.6,0,0,0,.38,1.78,4.08,4.08,0,0,0,.81,1.5,1.65,1.65,0,0,0,1.28.55,2.47,2.47,0,0,0,.85-.17,3.63,3.63,0,0,0,.88-.48,4.43,4.43,0,0,0,.81-.81,5.32,5.32,0,0,0,.69-1.18l1.08,1.38a8,8,0,0,1-1.81,2.74,4.17,4.17,0,0,1-2.14,1.12l-.54,1.52,0,.1a1.78,1.78,0,0,1,1.56.63,2.91,2.91,0,0,1,.44,1.68,3,3,0,0,1-.23,1.19,2.54,2.54,0,0,1-.62.87,2.66,2.66,0,0,1-.91.53A3.34,3.34,0,0,1,105,34.64Z" fill="#f93"/><path d="M122,18.8a20.16,20.16,0,0,1-.37,4,10.75,10.75,0,0,1-1.06,3.12A4.14,4.14,0,0,1,119,27.55a5.07,5.07,0,0,1-4.35,0,4.12,4.12,0,0,1-1.57-1.65A10.75,10.75,0,0,1,112,22.78a21.54,21.54,0,0,1,0-8,10.54,10.54,0,0,1,1.07-3.12,4.12,4.12,0,0,1,1.57-1.65,5,5,0,0,1,4.35,0,4.14,4.14,0,0,1,1.58,1.65,10.55,10.55,0,0,1,1.06,3.12A20.13,20.13,0,0,1,122,18.8ZM112.86,7.12a7.54,7.54,0,0,1,.74-3.6,2,2,0,0,1,1.79-1.18,1.42,1.42,0,0,1,.88.28,5.1,5.1,0,0,1,.7.62c.21.23.42.44.62.63a1,1,0,0,0,.71.28,1,1,0,0,0,.9-.43,2.73,2.73,0,0,0,.4-1.22h1.19c-.27,3.32-1.12,5-2.53,5a1.35,1.35,0,0,1-.86-.28,5.1,5.1,0,0,1-.7-.62c-.22-.24-.44-.45-.65-.65a1,1,0,0,0-.7-.29,1.06,1.06,0,0,0-.9.39,2.3,2.3,0,0,0-.39,1.09ZM115,24.51a1.91,1.91,0,0,0,3.63,0,17.35,17.35,0,0,0,.64-5.71,17.35,17.35,0,0,0-.64-5.71,1.91,1.91,0,0,0-3.63,0,17.64,17.64,0,0,0-.64,5.71A17.64,17.64,0,0,0,115,24.51Z" fill="#f93"/><path d="M126.12,19.26a14.46,14.46,0,0,0,.4,3.73c.42,1.57,1.15,2.35,2.19,2.35a2.88,2.88,0,0,0,1.75-.65,5,5,0,0,0,1.48-2L133,24.08a8.58,8.58,0,0,1-1.89,2.81A4,4,0,0,1,128.21,28a3.57,3.57,0,0,1-2.52-1,6.28,6.28,0,0,1-1.61-2.86,13,13,0,0,1-.43-2.26,22.74,22.74,0,0,1-.14-2.72,16.15,16.15,0,0,1,1.27-7.14,4,4,0,0,1,3.65-2.53,3.55,3.55,0,0,1,1.95.55,4.53,4.53,0,0,1,1.49,1.55,8.38,8.38,0,0,1,.94,2.47,15.23,15.23,0,0,1,.33,3.32c0,.24,0,.48,0,.71s0,.6,0,1.1Zm2.27-7.42q-2.05,0-2.25,5.31h4.38v-.86A7.83,7.83,0,0,0,130,13,1.73,1.73,0,0,0,128.39,11.84Z" fill="#f93"/><path d="M138.68,26a2.49,2.49,0,0,0,.94-.17,2.34,2.34,0,0,0,.76-.46,2,2,0,0,0,.52-.74,2.49,2.49,0,0,0,.19-1,2.47,2.47,0,0,0-.25-1.15,2.64,2.64,0,0,0-.66-.86,4.63,4.63,0,0,0-.91-.64l-1-.55a7.42,7.42,0,0,1-1.21-.74A4.91,4.91,0,0,1,136,18.59a5.63,5.63,0,0,1-.75-1.6,7.45,7.45,0,0,1-.28-2.18A6.37,6.37,0,0,1,136,11a3.44,3.44,0,0,1,3-1.44,4,4,0,0,1,1.65.33,3.66,3.66,0,0,1,1.26.94,4.74,4.74,0,0,1,.81,1.45,5.77,5.77,0,0,1,.28,1.84,3.44,3.44,0,0,1-.36,1.75,1.2,1.2,0,0,1-2,.08,2,2,0,0,1-.36-1.21,3,3,0,0,1,.2-1.07,1.9,1.9,0,0,1,.52-.77,2.28,2.28,0,0,0-.75-1,1.9,1.9,0,0,0-1.16-.35,1.61,1.61,0,0,0-1.4.65,3.11,3.11,0,0,0-.46,1.8,3.12,3.12,0,0,0,.52,2,4,4,0,0,0,1.4,1.07c.53.27,1,.54,1.57.83a6,6,0,0,1,1.39,1.05,4.71,4.71,0,0,1,1,1.54,5.73,5.73,0,0,1,.37,2.19,6.57,6.57,0,0,1-.37,2.3,4.68,4.68,0,0,1-1,1.68,4.38,4.38,0,0,1-1.53,1,4.89,4.89,0,0,1-1.89.36,3.84,3.84,0,0,1-3-1.15,4.46,4.46,0,0,1-1.07-3.14,4.05,4.05,0,0,1,.46-2.11,1.3,1.3,0,0,1,1.1-.76,1.17,1.17,0,0,1,.88.45,1.77,1.77,0,0,1,.41,1.27,3.05,3.05,0,0,1-.22,1.15,2.14,2.14,0,0,1-.5.83,3.06,3.06,0,0,0,.66,1A1.78,1.78,0,0,0,138.68,26Z" fill="#f93"/><path d="M149.42,23.82a7.27,7.27,0,0,1,.37-2.39,5.09,5.09,0,0,1,1.14-1.84,6.87,6.87,0,0,1,1.95-1.35,17.13,17.13,0,0,1,2.83-1c-.07-1.1-.15-1.94-.23-2.52a10.11,10.11,0,0,0-.35-1.54,4.77,4.77,0,0,0-.65-1.22,1.16,1.16,0,0,0-.95-.46,1.3,1.3,0,0,0-.77.26,1.31,1.31,0,0,0-.47.73,1.39,1.39,0,0,1,.39.74,3.46,3.46,0,0,1,.11.84,2.56,2.56,0,0,1-.43,1.47,1.29,1.29,0,0,1-1.06.65,1.08,1.08,0,0,1-1-.68,3.73,3.73,0,0,1-.35-1.7A4.72,4.72,0,0,1,150.3,12a4.22,4.22,0,0,1,.9-1.33,3.79,3.79,0,0,1,1.25-.83,3.74,3.74,0,0,1,1.38-.28,3.21,3.21,0,0,1,1.69.45,3.74,3.74,0,0,1,1.2,1.1c1.05,1.54,1.58,4,1.58,7.33v4.29a12.54,12.54,0,0,0,.13,2.26c.08.41.27.61.56.61h.9v1.49a6.93,6.93,0,0,1-2.77.95.86.86,0,0,1-.55-.16,1.11,1.11,0,0,1-.33-.56,5.82,5.82,0,0,1-.17-1.09c0-.46,0-1.06,0-1.78h-.08a6.72,6.72,0,0,1-1.63,2.64,3.18,3.18,0,0,1-2.19.95,2.23,2.23,0,0,1-2-1.12A5.71,5.71,0,0,1,149.42,23.82Zm3.91,1.81a1.46,1.46,0,0,0,.93-.44,3.75,3.75,0,0,0,.89-1.31,6.75,6.75,0,0,0,.41-1.32,8.69,8.69,0,0,0,.2-2c0-.27,0-.56,0-.88s0-.63-.06-.94a9.68,9.68,0,0,0-1.72.78,4.3,4.3,0,0,0-1.11.91,2.83,2.83,0,0,0-.59,1.14,5.35,5.35,0,0,0-.18,1.46,4,4,0,0,0,.39,2.05A1.09,1.09,0,0,0,153.33,25.63Z" fill="#f93"/><path d="M159.87,10.35l2-.46.23-4.09,2.28-.53V9.89h2.55V12h-2.55V22.83c0,.75,0,1.26,0,1.53a3.73,3.73,0,0,0,.08.68.52.52,0,0,0,.22.3,1.08,1.08,0,0,0,.52.1h1.39v1.45a13.31,13.31,0,0,1-2,.87,4.86,4.86,0,0,1-1.41.28c-.6,0-1-.4-1.16-1.22a6,6,0,0,1-.12-1c0-.41,0-1,0-1.87V12h-1.94Z" fill="#f93"/><path d="M170.42,19.26a14.46,14.46,0,0,0,.4,3.73c.42,1.57,1.15,2.35,2.19,2.35a2.88,2.88,0,0,0,1.75-.65,5,5,0,0,0,1.48-2l1.08,1.38a8.58,8.58,0,0,1-1.89,2.81A4,4,0,0,1,172.51,28a3.57,3.57,0,0,1-2.52-1,6.28,6.28,0,0,1-1.61-2.86A14,14,0,0,1,168,22a22.74,22.74,0,0,1-.14-2.72,16.15,16.15,0,0,1,1.27-7.14,4,4,0,0,1,3.65-2.53,3.6,3.6,0,0,1,2,.55,4.6,4.6,0,0,1,1.48,1.55,8.11,8.11,0,0,1,.94,2.47,15.23,15.23,0,0,1,.33,3.32c0,.24,0,.48,0,.71s0,.6-.05,1.1Zm2.27-7.42q-2.06,0-2.25,5.31h4.38v-.86a7.83,7.83,0,0,0-.55-3.3A1.73,1.73,0,0,0,172.69,11.84Zm0-7.72c.2-.53.38-1,.55-1.31a4.83,4.83,0,0,1,.47-.8,1.32,1.32,0,0,1,.46-.43,1,1,0,0,1,.52-.14.91.91,0,0,1,.87.42,1.89,1.89,0,0,1,.24,1,2.25,2.25,0,0,1-.36,1.11,16.9,16.9,0,0,1-1.31,1.76l-.76.93h-1.66Z" fill="#f93"/><path d="M183.78,15.83a33.08,33.08,0,0,1,.42-5.61,14.25,14.25,0,0,1,1.23-4,4.41,4.41,0,0,1,1.77-2,5.14,5.14,0,0,1,2.46-.56,7,7,0,0,1,1.38.13,3.82,3.82,0,0,1,1.1.43,3.77,3.77,0,0,1,.91.8,7.37,7.37,0,0,1,.83,1.22,14.24,14.24,0,0,1,1.24,4,33.08,33.08,0,0,1,.42,5.61,31.85,31.85,0,0,1-.43,5.61,14.66,14.66,0,0,1-1.23,4,7.82,7.82,0,0,1-.83,1.22,3.72,3.72,0,0,1-.91.79,3.56,3.56,0,0,1-1.1.43,6.35,6.35,0,0,1-1.38.13,5,5,0,0,1-2.46-.56,4.33,4.33,0,0,1-1.77-2,14.33,14.33,0,0,1-1.23-4A32.92,32.92,0,0,1,183.78,15.83Zm8.93,0a24.67,24.67,0,0,0-.9-7.85,8.15,8.15,0,0,0-.4-.91,2.88,2.88,0,0,0-.44-.64,1.53,1.53,0,0,0-.55-.4,2,2,0,0,0-.76-.13,2,2,0,0,0-1.28.51A3,3,0,0,0,187.5,8a25,25,0,0,0-.89,7.85,41.8,41.8,0,0,0,.22,4.67,13.67,13.67,0,0,0,.67,3.19,3.15,3.15,0,0,0,.86,1.56,1.89,1.89,0,0,0,1.3.52,2,2,0,0,0,.76-.14,1.5,1.5,0,0,0,.55-.39,3,3,0,0,0,.44-.65,7.93,7.93,0,0,0,.4-.9A24.57,24.57,0,0,0,192.71,15.83Z" fill="#f93"/><path d="M205.69,7.58h-5.43l-.61,6.7a4.07,4.07,0,0,1,1.25-1.09,3.27,3.27,0,0,1,1.56-.36,3.56,3.56,0,0,1,1.88.51,4.43,4.43,0,0,1,1.46,1.49,8.05,8.05,0,0,1,.93,2.34,13,13,0,0,1,.33,3,13.3,13.3,0,0,1-.35,3.2,7.9,7.9,0,0,1-1,2.48,5,5,0,0,1-1.62,1.58,4,4,0,0,1-2.14.56,4.31,4.31,0,0,1-2-.43,4.21,4.21,0,0,1-1.45-1.17,5.41,5.41,0,0,1-.92-1.71,6.69,6.69,0,0,1-.32-2.07,7,7,0,0,1,.16-1.53,5.57,5.57,0,0,1,.41-1.16,2.06,2.06,0,0,1,.59-.72,1.15,1.15,0,0,1,.7-.25,1.14,1.14,0,0,1,1.11.59,3.06,3.06,0,0,1,.3,1.39,2.8,2.8,0,0,1-.35,1.42,1.08,1.08,0,0,1-1,.63,4.2,4.2,0,0,0,.72,2,2,2,0,0,0,1.73.82,2.12,2.12,0,0,0,1.94-1.48,9.51,9.51,0,0,0,.69-4,10,10,0,0,0-.6-3.83,2,2,0,0,0-1.83-1.42,2.53,2.53,0,0,0-2.41,1.65l-1.48-1L199.05,4h5.74l.36-1.05h1.43Z" fill="#f93"/><path d="M211.55,3.62h1.73L210.37,28h-1.73Z" fill="#f93"/><path d="M217.45,7.32h-2.53V5.14a3.87,3.87,0,0,0,.83-.1,3.88,3.88,0,0,0,.91-.3,4.38,4.38,0,0,0,.82-.47,1.86,1.86,0,0,0,.55-.65H220V25.24l2.14.62v1.85h-7.2V25.86l2.53-.62Z" fill="#f93"/><path d="M231.17,24.08l.48-4.22h1.69v7.85H223.27V25.53a8.9,8.9,0,0,1,.54-3.15,15.31,15.31,0,0,1,1.35-2.72,25,25,0,0,1,1.75-2.47c.63-.8,1.22-1.59,1.76-2.4A14.5,14.5,0,0,0,230,12.27a7.44,7.44,0,0,0,.54-2.84,4.34,4.34,0,0,0-.69-2.62,2.24,2.24,0,0,0-1.92-.94,2,2,0,0,0-1.72.79,4.82,4.82,0,0,0-.77,2.41,1.07,1.07,0,0,1,1,.54,2.67,2.67,0,0,1,.34,1.44,2.37,2.37,0,0,1-.4,1.48,1.26,1.26,0,0,1-1.05.53,1.36,1.36,0,0,1-.68-.18,1.67,1.67,0,0,1-.57-.58,3,3,0,0,1-.39-1,7.53,7.53,0,0,1-.14-1.55,9.2,9.2,0,0,1,.32-2.46,5.7,5.7,0,0,1,.93-1.95,4.37,4.37,0,0,1,1.47-1.27,4.12,4.12,0,0,1,2-.46,4.27,4.27,0,0,1,2,.46,4.67,4.67,0,0,1,1.57,1.31,6.29,6.29,0,0,1,1,2,9,9,0,0,1,.37,2.68,10,10,0,0,1-.57,3.46,13.46,13.46,0,0,1-1.42,2.84,17.49,17.49,0,0,1-1.85,2.34c-.65.71-1.27,1.37-1.84,2a16.52,16.52,0,0,0-1.43,1.75,2.89,2.89,0,0,0-.57,1.65Z" fill="#f93"/><path d="M34.94,35.35H4.5A4.5,4.5,0,0,1,.61,28.61L15.83,2.25A4.44,4.44,0,0,1,19.72,0h0a4.44,4.44,0,0,1,3.89,2.25L38.83,28.61a4.5,4.5,0,0,1-3.89,6.74ZM17.85,3.41,2.63,29.77A2.17,2.17,0,0,0,4.5,33H34.94a2.17,2.17,0,0,0,1.87-3.25L21.59,3.41a2.16,2.16,0,0,0-3.74,0Z" fill="#f93"/><path d="M19.73,9.54h0a2.81,2.81,0,0,1,2.79,3.15L21.29,23a1.58,1.58,0,0,1-1.57,1.39h0A1.58,1.58,0,0,1,18.15,23L16.93,12.68A2.82,2.82,0,0,1,19.73,9.54Z" fill="#f93"/><path d="M18.13,29.43a2.24,2.24,0,0,1,1.6-3.83,2.25,2.25,0,1,1,0,4.49A2.17,2.17,0,0,1,18.13,29.43Z" fill="#f93"/><path d="M271.5,35.35H241.06a4.5,4.5,0,0,1-3.89-6.74L252.39,2.25A4.44,4.44,0,0,1,256.28,0h0a4.44,4.44,0,0,1,3.89,2.25l15.22,26.36a4.5,4.5,0,0,1-3.89,6.74ZM254.41,3.41,239.19,29.77A2.17,2.17,0,0,0,241.06,33H271.5a2.17,2.17,0,0,0,1.87-3.25L258.15,3.41a2.16,2.16,0,0,0-3.74,0Z" fill="#f93"/><path d="M256.29,9.54h0a2.81,2.81,0,0,1,2.79,3.15L257.85,23a1.58,1.58,0,0,1-1.57,1.39h0A1.58,1.58,0,0,1,254.71,23l-1.22-10.34A2.82,2.82,0,0,1,256.29,9.54Z" fill="#f93"/><path d="M254.69,29.43a2.24,2.24,0,0,1,1.6-3.83,2.25,2.25,0,1,1,0,4.49A2.17,2.17,0,0,1,254.69,29.43Z" fill="#f93"/></svg>