<?xml version="1.0" encoding="utf-8"?>
<!-- Generator: Adobe Illustrator 24.0.1, SVG Export Plug-In . SVG Version: 6.00 Build 0)  -->
<!DOCTYPE svg PUBLIC "-//W3C//DTD SVG 1.1//EN" "http://www.w3.org/Graphics/SVG/1.1/DTD/svg11.dtd" [
	<!ENTITY st0 "display:none;fill:url(#SVGID_1_);">
	<!ENTITY st1 "fill:url(#SVGID_2_);stroke:#000000;stroke-miterlimit:10;">
	<!ENTITY st2 "fill:#FFFFFF;stroke:#AD000D;stroke-width:10;stroke-miterlimit:10;">
	<!ENTITY st3 "fill:#352931;">
	<!ENTITY st4 "fill:#7C6C65;">
	<!ENTITY st5 "fill:#D8874A;">
	<!ENTITY st6 "fill:#352931;stroke:#7C6C65;stroke-miterlimit:10;">
]>
<svg version="1.1" id="Layer_1" xmlns="http://www.w3.org/2000/svg" xmlns:xlink="http://www.w3.org/1999/xlink" x="0px" y="0px"
	 viewBox="0 0 1198 1198" style="enable-background:new 0 0 1198 1198;" xml:space="preserve">
<title>navbar-logo</title>
<g id="Layer_2_1_">
	<g id="Layer_5">
		
			<radialGradient id="SVGID_1_" cx="599" cy="599" r="599" gradientTransform="matrix(1 0 0 -1 0 1198)" gradientUnits="userSpaceOnUse">
			<stop  offset="0" style="stop-color:#29ABE2"/>
			<stop  offset="0.17" style="stop-color:#28A9DF"/>
			<stop  offset="0.3" style="stop-color:#27A1D5"/>
			<stop  offset="0.43" style="stop-color:#2394C4"/>
			<stop  offset="0.55" style="stop-color:#1F82AC"/>
			<stop  offset="0.67" style="stop-color:#196A8C"/>
			<stop  offset="0.78" style="stop-color:#134D66"/>
			<stop  offset="0.88" style="stop-color:#0A2B39"/>
			<stop  offset="0.99" style="stop-color:#010506"/>
			<stop  offset="1" style="stop-color:#000000"/>
		</radialGradient>
		<rect style="&st0;" width="1198" height="1198"/>
		<radialGradient id="SVGID_2_" cx="599" cy="599" r="598.2" gradientUnits="userSpaceOnUse">
			<stop  offset="0" style="stop-color:#29ABE2"/>
			<stop  offset="0.17" style="stop-color:#28A9DF"/>
			<stop  offset="0.3" style="stop-color:#27A1D5"/>
			<stop  offset="0.43" style="stop-color:#2394C4"/>
			<stop  offset="0.55" style="stop-color:#1F82AC"/>
			<stop  offset="0.67" style="stop-color:#196A8C"/>
			<stop  offset="0.78" style="stop-color:#134D66"/>
			<stop  offset="0.88" style="stop-color:#0A2B39"/>
			<stop  offset="0.99" style="stop-color:#010506"/>
			<stop  offset="1" style="stop-color:#000000"/>
		</radialGradient>
		<circle style="&st1;" cx="599" cy="599" r="598.2"/>
		<circle style="&st2;" cx="598" cy="598" r="188"/>
		<path style="&st3;" d="M1061.9,599.2c-10.9,0.3-22.2-1-32.6,1.4c-10.5,2.4-20.4,6.9-29.1,13.1c-36.8,26.7-76.8,31.4-119.6,19.2
			c-20.1-5.7-40.2-6.9-60.2,0.3c-13.3,4.8-25.2,12.9-34.4,23.5l211,171.6l-0.7,1.3L742.5,729.3c-4.9,15.5-5.7,30.5-2,45.7
			c4.3,17.4,13.7,31.9,26.4,44.2c19.4,18.7,35,39.7,42.2,66c4.2,14.8,5.4,30.2,3.7,45.5c-2.6,22.7,1.9,43.6,16.2,61.9
			c0.6,0.7,1.1,1.5,1.6,2.3c0.1,0.4,0.1,0.9,0.1,1.3c-8.8-4.1-16.3-9.7-21.2-17.3c-6.9-11-12.6-22.7-18.4-34.3
			c-3.2-6.4-5.6-13.2-8.5-19.8c-8.1-18.8-21-33.3-38.5-44.1c-18.3-11.3-36.7-22.5-54.2-35c-21.1-15-36.1-35.2-45.7-59.4
			c-0.5-1.2-1.1-2.4-1.7-3.6c-0.5-0.7-1.1-1.4-1.7-2.1c-14.9,93.3-29.7,185.5-44.4,277.7H595c-13.6-91.7-27.3-183.3-41.1-276
			c-1.2,1.5-1.9,2.2-2.1,2.9c-12.8,34.4-37.3,58.5-68,77c-12.9,7.8-25.8,15.8-38.5,24c-14.5,9.4-24.8,22.5-31.7,38.3
			c-5.1,11.8-10,23.7-15.2,35.4c-6.3,14.3-15.1,26.5-28.6,35c-1.4,0.9-2.9,1.5-5.5,3c0.4-1,0.8-2,1.3-2.9
			c14.1-17.8,19.5-38.1,17.1-60.5c-2.8-25.5,1.3-49.7,13.3-72.4c8-15.2,19-28.1,31.2-40.1c16.9-16.5,27.9-36,29.9-60
			c0.9-10.9-0.8-21.3-4.1-32.3l-252,99.6l-1-1.5L414.2,653l-0.9-1.3c-5.9,0.6-11.8,1.4-17.8,1.8c-31.2,2-59.1-8.3-85.8-23
			c-7.5-4.1-15-8-22.2-12.6c-25.5-16.2-53-20.6-82.6-15.1c-16,3-32.2,5.4-48.4,1.7c-7.7-1.8-15-5.1-22.6-7.7l0.6-1.4
			c7.6,0,15.2,0.5,22.8-0.1c15.3-1.3,28.7-7.5,41-16.5c33.1-24.1,69.6-29.2,108.9-19.8c10.3,2.5,20.5,5.5,31,6.5
			c27.7,2.8,51.2-6.5,71.1-27.4L199.6,367.8l0.6-1.3l253.3,100.2c4.8-15.3,5.6-30.2,2.2-45.2c-4.3-19.1-14.4-34.8-28.2-48.2
			c-15.7-15.3-28.9-32.4-37-53c-7.2-18.4-9.8-38.3-7.5-57.9c2.5-23.1-2.6-43.8-17.1-62.2c-0.4-0.5-0.7-1.2-1.8-3
			c8.6,3.9,15.4,8.6,20,15.1c6.5,9.5,12.3,19.3,17.5,29.6c3.8,7.3,6.6,15.3,9.6,23c9.5,23.9,26.5,40.6,48.4,53.6
			c17.8,10.4,34.9,21.7,51.4,34c18.1,13.6,30.7,32.1,39.3,53.1c0.8,1.9,1.7,3.8,2.5,5.7c0.1,0.2,0.6,0.3,1.6,0.6
			c13.4-90.8,26.7-181.5,40.1-272.1l2-0.1c14.6,90.6,29.2,181.1,44,273.1c1.6-2.1,2.2-2.7,2.4-3.3c12.7-34.6,37.7-58.1,68.3-76.7
			c15-9.1,30.1-18.1,44.4-28.3c17.5-12.5,25.1-32,33.5-50.9c5.7-13.1,12.2-25.8,19.5-38.1c4.7-7.9,12.6-13.3,22.1-18.3
			c-0.4,1.2-0.9,2.3-1.5,3.3c-14.4,18.2-19.4,38.9-16.9,61.7c4.5,41.7-10.4,76.3-39.2,105.6c-10,10.1-19.7,20.4-26.1,33.3
			c-10.2,20.5-12,41.8-5.2,64.8l252.2-99.5l0.8,1.5L780,542.6c11.3-0.6,21.7-1.6,32-1.5c24.5,0.3,47.1,8.1,68.5,19.6
			c12.3,6.6,24.8,13,36.9,20c21.1,12.1,43.7,14.8,67.4,11.1c10.1-1.6,20.2-2.8,30.3-3.8c16.6-1.6,32.4,1.3,46.8,10L1061.9,599.2z
			 M598,784.8c103,0,186.2-83.1,186.5-186.4c0.3-102.5-83.1-186.3-185.6-186.5c-103.8-0.2-187.6,83.2-187.4,186.5
			C411.6,701.5,495,784.8,598,784.8z"/>
		<path style="&st3;" d="M757.5,598.5c0.1,89.6-72,162.6-160.5,162.7c-88.3,0.1-160.6-73.3-160.3-162.8s71.8-162.1,160.2-162.3
			S757.4,508.7,757.5,598.5z M596.7,753.7c84.2,0.2,152.9-69,153.4-154.6c0.5-85.3-68-155.3-152.3-155.7
			c-84.7-0.4-153.7,68.8-154,154.5S512.1,753.5,596.7,753.7z"/>
		<path style="&st3;" d="M745.8,598.9c-0.3,83.8-67,150.5-150.1,150.1c-81.7-0.4-147.9-68.2-147.4-151.1
			c0.4-83.6,67-150.2,149.9-149.8C680.1,448.6,746.2,516.1,745.8,598.9z"/>
		<path style="&st4;" d="M599.8,651.2h-83.1c-25.7,0-46.6-20.8-46.6-46.5v-57.8h51.7c31.1,0,70.2,37.5,77.9,77.8V651.2z"/>
		<ellipse style="&st5;" cx="526" cy="599" rx="30.6" ry="30.6"/>
		<ellipse style="&st3;" cx="526" cy="599" rx="21.6" ry="21.6"/>
		<path style="&st4;" d="M596.2,651.2h83.1c25.7,0,46.6-20.8,46.6-46.5v-57.8h-51.7c-31.1,0-70.2,37.5-77.9,77.8V651.2z"/>
		<ellipse style="&st5;" cx="670" cy="599" rx="30.6" ry="30.6"/>
		<ellipse style="&st3;" cx="670" cy="599" rx="21.6" ry="21.6"/>
		<polygon id="bico" style="&st6;" points="598,671.1 584,646.9 570,622.7 598,622.7 626,622.7 612,646.9 		"/>
	</g>
</g>
</svg>
