<?xml version="1.0" standalone="no"?>
<!DOCTYPE svg PUBLIC "-//W3C//DTD SVG 20010904//EN"
 "http://www.w3.org/TR/2001/REC-SVG-20010904/DTD/svg10.dtd">
<svg version="1.0" xmlns="http://www.w3.org/2000/svg"
 width="260.000000pt" height="260.000000pt" viewBox="0 0 260.000000 260.000000"
 preserveAspectRatio="xMidYMid meet">
<metadata>
Created by potrace 1.11, written by Peter Selinger 2001-2013
</metadata>
<g transform="translate(0.000000,260.000000) scale(0.100000,-0.100000)"
fill="#000000" stroke="none">
<path d="M1190 2594 c-584 -55 -1053 -482 -1166 -1061 -26 -130 -23 -357 5
-490 110 -523 511 -917 1038 -1019 119 -23 347 -23 466 0 527 102 928 496
1038 1019 31 144 31 370 0 514 -54 258 -171 474 -356 658 -187 188 -417 310
-673 359 -84 16 -277 27 -352 20z m77 -240 c7 -19 -66 -555 -78 -568 -4 -5
-14 7 -22 27 -24 56 -85 116 -188 183 -102 66 -135 101 -164 174 -9 25 -19 50
-22 56 -11 29 236 113 391 134 34 4 65 8 69 9 4 0 10 -6 14 -15z m188 1 c101
-12 218 -47 308 -92 55 -27 55 -29 3 -128 -28 -53 -42 -67 -128 -125 -115 -76
-179 -137 -203 -191 -10 -21 -21 -39 -24 -39 -7 0 -91 529 -91 568 0 21 3 23
43 18 23 -3 65 -8 92 -11z m-676 -358 c12 -25 47 -74 78 -108 30 -35 62 -77
69 -95 17 -41 19 -154 3 -154 -25 0 -521 204 -526 216 -12 33 144 210 262 296
l80 59 6 -84 c4 -57 13 -99 28 -130z m1139 176 c98 -64 292 -271 292 -311 0
-8 -477 -205 -532 -220 -16 -4 -18 3 -18 57 0 79 15 113 83 190 78 87 100 137
105 238 3 46 7 83 9 83 3 0 30 -17 61 -37z m346 -400 c53 -108 92 -248 109
-400 l5 -42 -70 -11 c-91 -16 -121 -9 -252 58 -104 52 -116 56 -198 60 -49 2
-88 7 -87 11 1 10 453 371 465 371 2 0 14 -21 28 -47z m-1864 20 c14 -9 114
-89 224 -177 l198 -160 -31 -27 c-34 -28 -92 -49 -136 -49 -15 0 -55 7 -89 16
-87 23 -176 15 -246 -22 -91 -47 -89 -47 -85 -11 15 119 30 198 50 257 29 85
75 190 84 190 4 0 18 -8 31 -17z m1039 -52 c195 -61 321 -234 321 -442 0 -260
-199 -459 -460 -459 -261 0 -460 199 -460 459 0 206 125 380 318 442 78 24
202 25 281 0z m-1014 -452 c22 -6 67 -27 100 -46 98 -58 153 -75 233 -77 39 0
72 -3 71 -6 0 -4 -286 -237 -417 -340 -42 -33 -45 -34 -58 -15 -20 27 -74 170
-90 236 -13 57 -21 108 -28 191 l-5 47 42 9 c59 14 105 14 152 1z m1949 -66
c-13 -141 -53 -293 -106 -396 l-24 -49 -57 44 c-127 97 -406 323 -406 330 -2
15 67 57 111 69 39 11 60 10 140 -6 119 -23 183 -16 263 30 83 47 85 46 79
-22z m-1434 -326 c0 -65 -18 -102 -83 -176 -81 -90 -101 -137 -105 -243 -2
-49 -7 -88 -11 -88 -21 0 -116 74 -191 150 -98 98 -169 195 -154 210 6 6 127
57 270 114 180 72 261 101 266 93 4 -7 8 -34 8 -60z m1040 -51 c118 -48 221
-90 229 -95 33 -21 -130 -215 -262 -313 -43 -32 -82 -58 -87 -58 -4 0 -9 42
-12 93 -5 111 -24 158 -105 248 -30 35 -62 77 -69 95 -14 33 -19 135 -8 147 3
3 27 -2 53 -13 25 -10 143 -57 261 -104z m-785 -48 c11 -49 75 -511 75 -542
l0 -33 -52 4 c-75 6 -183 29 -251 52 -96 34 -177 73 -177 87 0 22 39 115 62
147 12 16 65 58 118 92 99 65 186 149 196 191 8 30 22 31 29 2z m240 -9 c29
-55 89 -112 186 -175 107 -69 135 -100 174 -193 30 -73 35 -66 -73 -111 -92
-39 -204 -68 -290 -75 -37 -4 -77 -8 -89 -11 -20 -4 -23 0 -23 28 0 53 83 568
92 568 4 0 15 -14 23 -31z"/>
<path d="M1163 1691 c-286 -106 -364 -471 -146 -688 123 -124 334 -148 489
-57 59 35 131 115 162 182 24 51 27 68 27 172 0 104 -3 121 -27 173 -37 79
-117 160 -196 199 -58 29 -77 33 -161 35 -75 3 -107 -1 -148 -16z m300 -25
c74 -36 153 -114 192 -191 28 -56 30 -68 30 -170 0 -99 -3 -116 -27 -168 -62
-132 -195 -226 -332 -235 -358 -23 -560 400 -319 669 86 94 173 130 308 126
74 -3 100 -8 148 -31z"/>
<path d="M1178 1661 c-106 -35 -179 -104 -229 -216 -18 -40 -23 -68 -23 -140
0 -117 25 -184 100 -264 195 -211 550 -128 630 147 11 38 15 80 12 138 -8 145
-86 262 -216 322 -76 35 -192 40 -274 13z m14 -256 c23 -17 57 -52 73 -77 17
-26 32 -47 35 -47 3 0 19 21 35 47 17 25 50 60 73 77 39 27 53 30 133 33 l89
4 0 -100 c0 -86 -3 -103 -21 -126 -36 -45 -69 -56 -177 -56 -95 0 -99 -1 -112
-25 -7 -14 -16 -25 -20 -25 -4 0 -13 11 -20 25 -13 24 -17 25 -112 25 -108 0
-141 11 -177 56 -18 23 -21 40 -21 126 l0 100 89 -4 c80 -3 94 -6 133 -33z"/>
<path d="M1074 1325 c-15 -23 -15 -27 0 -50 10 -15 26 -25 41 -25 15 0 31 10
41 25 15 23 15 27 0 50 -10 15 -26 25 -41 25 -15 0 -31 -10 -41 -25z"/>
<path d="M1444 1325 c-15 -23 -15 -27 0 -50 10 -15 26 -25 41 -25 15 0 31 10
41 25 15 23 15 27 0 50 -10 15 -26 25 -41 25 -15 0 -31 -10 -41 -25z"/>
<path d="M1240 1229 c0 -3 11 -23 25 -43 14 -20 25 -41 25 -46 0 -6 5 -10 10
-10 6 0 10 4 10 10 0 5 11 26 25 46 14 20 25 40 25 43 0 3 -27 6 -60 6 -33 0
-60 -3 -60 -6z"/>
</g>
</svg>
