<svg id="Layer_1" data-name="Layer 1" xmlns="http://www.w3.org/2000/svg" viewBox="0 0 457.29 983.08"><title>shape</title><path d="M79.23,0C87,6.31,88.52,10.15,86.11,16.8c-1.84,5.08-5.67,7.66-10.86,8.1s-9.44-1.59-12-6.24a12,12,0,0,1,1.32-14.3A54.14,54.14,0,0,1,69.23,0Z" fill="#f93"/><path d="M388.23,0c7.2,5.89,9.07,10.26,7,16.38a12,12,0,0,1-11,8.57c-5.42.29-10.16-2.33-12.28-6.78-2.64-5.57-2.12-9.76,1.94-14.18,1.32-1.45,2.91-2.67,4.38-4Z" fill="#f93"/><path d="M141.23,0c7.91,6.46,9.65,12.44,5.53,19-3.95,6.32-11.78,7.87-18.12,3.58A12.08,12.08,0,0,1,126.2,4.73a49.13,49.13,0,0,1,5-4.73Z" fill="#f93"/><path d="M326.23,0c1.34,1.2,2.78,2.32,4,3.62,5.24,5.48,5.24,12.68.08,17.7-4.94,4.8-13.46,4.88-18,.17a12.94,12.94,0,0,1,.19-18.23C313.69,2.1,315,1.08,316.23,0Z" fill="#f93"/><path d="M17.23,0c2.4,2.84,5.59,5.33,7,8.59,2.67,6-.55,12.83-6.34,15.3-6.28,2.68-13.44.39-16.32-5.2C-1.63,12.38.15,5.32,5.86,1.73,6.69,1.22,7.44.58,8.23,0Z" fill="#f93"/><path d="M202.23,0c4.58,2.75,8.08,6.12,8,12.07s-3.86,11.47-9.08,12.72c-5.58,1.34-12.39-1.8-14.72-6.78-2.67-5.73-1.28-11.45,3.76-15.51,1-.83,2-1.67,3-2.5Z" fill="#f93"/><path d="M449.23,0c5,2.9,8.35,6.76,8,13.07-.33,5.77-3.67,10.36-9,11.7s-12-1.53-14.57-6.23a13.31,13.31,0,0,1,2.72-15.47C437.6,2,438.94,1,440.23,0Z" fill="#f93"/><path d="M264.23,0c3.94,3.23,8.25,6.11,8,12.21-.26,6.43-4.36,11.6-10.44,12.63a12.62,12.62,0,0,1-14-7.87,12.92,12.92,0,0,1,5.47-15.5c.68-.42,1.29-1,1.94-1.47Z" fill="#f93"/><path d="M334.15,172a12.92,12.92,0,0,1-13,12.93c-6.53-.07-12.7-6.31-12.74-12.89-.05-6.18,6.86-13,13-12.89C328,159.3,334.15,165.47,334.15,172Z" fill="#f93"/><path d="M383.19,159.15c6.17,0,13,6.83,12.89,13-.12,6.6-6.26,12.76-12.78,12.81a12.91,12.91,0,0,1-13-12.91C370.28,165.89,377,159.18,383.19,159.15Z" fill="#f93"/><path d="M74.23,105c-7.65,0-12.38-5.56-12.76-13-.34-6.46,6.21-12.27,13.09-12.3,6.23,0,12.58,6.22,12.59,12.39A12.78,12.78,0,0,1,74.23,105Z" fill="#f93"/><path d="M457.19,252c1,7.34-5.89,12.44-12.24,12.85-6.9.45-12.77-5.81-12.68-13.07.09-7,6-13,12.65-12.61C451.27,239.55,458.21,244.67,457.19,252Z" fill="#f93"/><path d="M383.06,105A12.82,12.82,0,0,1,370.3,91.86c.11-6.2,6.5-12.31,12.74-12.19,6.94.12,13.09,6,13,12.42A12.91,12.91,0,0,1,383.06,105Z" fill="#f93"/><path d="M457.19,172.28c0,6.7-5.63,12.62-12,12.65a12.81,12.81,0,0,1-13-12.87c0-7.1,5.85-13.16,12.94-12.84C450.69,159.47,458.24,164.11,457.19,172.28Z" fill="#f93"/><path d="M396.08,251.79c.18,6-6.59,13-12.71,13.14-6.49.12-12.75-5.83-13.07-12.44C370,246,376,239.38,382.4,239.11S395.88,245.36,396.08,251.79Z" fill="#f93"/><path d="M210.19,171.87c0,7.29-5.58,13.13-12.55,13.08-6.76,0-12.33-5.91-12.38-12.93a12.1,12.1,0,0,1,12.51-12.61C205.79,159.41,211.13,165.57,210.19,171.87Z" fill="#f93"/><path d="M247.26,172.18c-1-7.24,5.06-12.56,12.61-12.86,6.61-.27,12.21,5.72,12.31,12.39C272.29,179,266.6,185,259.63,185A12.75,12.75,0,0,1,247.26,172.18Z" fill="#f93"/><path d="M135.73,105a12.79,12.79,0,0,1-12.45-12.33c-.07-6.73,5.8-12.9,12.39-13A13.09,13.09,0,0,1,149,92.22C149.21,98.77,142.78,105,135.73,105Z" fill="#f93"/><path d="M321.6,79.62c6.4,0,12.51,6,12.55,12.32.05,7-5.57,12.93-12.31,13-7.19.07-13.61-6.17-13.46-13.09C308.51,85.39,314.75,79.62,321.6,79.62Z" fill="#f93"/><path d="M.26,91.8c0-7.34,4.73-12,12.17-12.14A12.55,12.55,0,0,1,25.18,92.1,12.78,12.78,0,0,1,12.65,105C5.24,104.92.23,99.61.26,91.8Z" fill="#f93"/><path d="M457.19,92.2c0,7.25-5.31,12.7-12.35,12.75a12.78,12.78,0,0,1-12.57-12.79,12.56,12.56,0,0,1,12.67-12.52C452.5,79.71,457.22,84.54,457.19,92.2Z" fill="#f93"/><path d="M272.18,92.19A12.69,12.69,0,0,1,259.69,105a12.33,12.33,0,0,1-12.42-12.67c0-7.6,5-12.65,12.33-12.66A12.25,12.25,0,0,1,272.18,92.19Z" fill="#f93"/><path d="M210.19,92.41A12.31,12.31,0,0,1,197.65,105a12.73,12.73,0,0,1-12.38-12.87,12.23,12.23,0,0,1,12.67-12.44C205.19,79.7,210.16,84.89,210.19,92.41Z" fill="#f93"/><path d="M321.5,264.12a12.81,12.81,0,0,1-12.87-13.05c.07-5.77,7-12,13.17-12s12.49,6.63,12.35,13.11C334,259,328.55,264.09,321.5,264.12Z" fill="#f93"/><path d="M124,171.85c0-9.09,5.55-11.91,12.4-12.55,6.14-.56,12.94,7,12.67,13-.29,6.29-6.49,11.94-13.06,11.9C128.81,184.17,123.94,179.16,124,171.85Z" fill="#f93"/><path d="M210.14,651.61a12.34,12.34,0,1,1-12.28-12.5A12.53,12.53,0,0,1,210.14,651.61Z" fill="#f93"/><path d="M247.3,651.64A12.34,12.34,0,1,1,260,663.77,12.51,12.51,0,0,1,247.3,651.64Z" fill="#f93"/><path d="M247.3,571.78A12.34,12.34,0,1,1,260,583.85,12.52,12.52,0,0,1,247.3,571.78Z" fill="#f93"/><path d="M210.15,571.59a12.34,12.34,0,1,1-12.4-12.38A12.52,12.52,0,0,1,210.15,571.59Z" fill="#f93"/><path d="M259.83,503.93a12.31,12.31,0,0,1-.71-24.6,12.63,12.63,0,0,1,12.84,12A12.47,12.47,0,0,1,259.83,503.93Z" fill="#f93"/><path d="M247.3,731.23a12.33,12.33,0,1,1,24.66.43,12.64,12.64,0,0,1-12.33,12A12.46,12.46,0,0,1,247.3,731.23Z" fill="#f93"/><path d="M197.72,424a12.38,12.38,0,0,1-12.25-12.46,12.62,12.62,0,0,1,12.24-12.06,12.43,12.43,0,0,1,12.43,12.29A12.29,12.29,0,0,1,197.72,424Z" fill="#f93"/><path d="M259.63,424a12.28,12.28,0,0,1-12.33-12.32,12.42,12.42,0,0,1,12-12.19A12.58,12.58,0,0,1,272,411.62,12.37,12.37,0,0,1,259.63,424Z" fill="#f93"/><path d="M457.16,572a12.3,12.3,0,1,1-11.93-12.8A12.4,12.4,0,0,1,457.16,572Z" fill="#f93"/><path d="M457.17,491.83a12.3,12.3,0,0,1-24.6-.09A12.52,12.52,0,0,1,445,479.33,12.38,12.38,0,0,1,457.17,491.83Z" fill="#f93"/><path d="M444.79,719.06a12.27,12.27,0,0,1,12.38,12.28,12.4,12.4,0,0,1-11.91,12.31,12.55,12.55,0,0,1-12.69-12.6A12.37,12.37,0,0,1,444.79,719.06Z" fill="#f93"/><path d="M197.58,719.06a12.28,12.28,0,1,1,.26,24.56,12.28,12.28,0,0,1-.26-24.56Z" fill="#f93"/><path d="M197.45,503.93a12.47,12.47,0,0,1-12-12.78,12.63,12.63,0,0,1,13-11.81,12.31,12.31,0,0,1-1,24.59Z" fill="#f93"/><path d="M12.41,719.06A12.36,12.36,0,0,1,24.88,731.3a12.56,12.56,0,0,1-12.46,12.35A12.38,12.38,0,0,1,.28,731.58,12.23,12.23,0,0,1,12.41,719.06Z" fill="#f93"/><path d="M457.17,651.37a12.44,12.44,0,0,1-12.35,12.4,12.33,12.33,0,0,1-.1-24.66A12.39,12.39,0,0,1,457.17,651.37Z" fill="#f93"/><path d="M12.62,503.93a12.3,12.3,0,0,1-.41-24.6A12.54,12.54,0,0,1,24.88,492,12.43,12.43,0,0,1,12.62,503.93Z" fill="#f93"/><path d="M259.56,799a12.23,12.23,0,1,1-12.26,12.38A12.36,12.36,0,0,1,259.56,799Z" fill="#f93"/><path d="M.28,651.32a12.37,12.37,0,0,1,12.49-12.2,12.4,12.4,0,0,1,12.07,12.16,12.54,12.54,0,0,1-12.28,12.49A12.41,12.41,0,0,1,.28,651.32Z" fill="#f93"/><path d="M.28,571.36a12.42,12.42,0,0,1,12.58-12.15,12.58,12.58,0,0,1,12,12.29,12.44,12.44,0,0,1-12.38,12.36A12.36,12.36,0,0,1,.28,571.36Z" fill="#f93"/><path d="M198.11,823.44a12.23,12.23,0,1,1,12-12.64A12.43,12.43,0,0,1,198.11,823.44Z" fill="#f93"/><path d="M12.6,264.12C5.49,264.12.24,258.94.27,252s5.32-12.11,12.42-12.06a12.11,12.11,0,1,1-.09,24.22Z" fill="#f93"/><path d="M457.17,411.57a12.31,12.31,0,1,1-24.61.18,12.73,12.73,0,0,1,12.05-12.28A12.31,12.31,0,0,1,457.17,411.57Z" fill="#f93"/><path d="M12.64,958.86a12.11,12.11,0,1,1-.24,24.22,12.11,12.11,0,1,1,.24-24.22Z" fill="#f93"/><path d="M12.81,903.15c-7.16.11-12.52-5-12.54-12a12,12,0,0,1,12-12.17,12.12,12.12,0,1,1,.57,24.22Z" fill="#f93"/><path d="M333.44,651.53a12,12,0,0,1-11.8,12.24,12.33,12.33,0,0,1-.3-24.65C328.31,639.13,333.48,644.43,333.44,651.53Z" fill="#f93"/><path d="M445,983.08a12.11,12.11,0,1,1-.25-24.22c7.15,0,12.45,5.2,12.39,12.22A12,12,0,0,1,445,983.08Z" fill="#f93"/><path d="M148.25,571.51A12.31,12.31,0,0,1,136,583.86a12.34,12.34,0,0,1-.06-24.67A12.36,12.36,0,0,1,148.25,571.51Z" fill="#f93"/><path d="M333.43,571.43a12,12,0,0,1-12.1,12.43,12.34,12.34,0,0,1-.2-24.67A12,12,0,0,1,333.43,571.43Z" fill="#f93"/><path d="M12.53,424a12.26,12.26,0,1,1,.23-24.52,12.72,12.72,0,0,1,12.12,12.2A12.32,12.32,0,0,1,12.53,424Z" fill="#f93"/><path d="M74.38,719.05c7,.06,12.13,5.42,12,12.6a12.12,12.12,0,1,1-24.22-.7A12,12,0,0,1,74.38,719.05Z" fill="#f93"/><path d="M12.49,823.44A12.22,12.22,0,0,1,12.3,799a12.29,12.29,0,0,1,12.58,12.06A12.58,12.58,0,0,1,12.49,823.44Z" fill="#f93"/><path d="M86.39,811.24a12.12,12.12,0,1,1-24.24-.11,12.12,12.12,0,1,1,24.24.11Z" fill="#f93"/><path d="M444.9,878.93a12.11,12.11,0,0,1,12.28,12.37,11.89,11.89,0,0,1-12.25,11.86,12.12,12.12,0,1,1,0-24.23Z" fill="#f93"/><path d="M445.1,799a12.22,12.22,0,0,1-.12,24.44,12.59,12.59,0,0,1-12.42-12.35A12.29,12.29,0,0,1,445.1,799Z" fill="#f93"/><path d="M383,799a11.87,11.87,0,0,1,12.29,11.78,12.12,12.12,0,1,1-24.22.82C370.89,804.42,376,799.07,383,799Z" fill="#f93"/><path d="M12.4,184.2A11.86,11.86,0,0,1,.27,172.26,12.11,12.11,0,0,1,12.63,160a12.12,12.12,0,1,1-.23,24.23Z" fill="#f93"/><path d="M321.16,799a11.71,11.71,0,0,1,12.27,11.73,12.12,12.12,0,1,1-24.23.38A11.87,11.87,0,0,1,321.16,799Z" fill="#f93"/><path d="M86.38,411.68c0,7.15-5.19,12.39-12.25,12.31a11.86,11.86,0,0,1-12-12.11,12.11,12.11,0,1,1,24.22-.2Z" fill="#f93"/><path d="M135.58,823.42c-7-.34-11.88-5.85-11.56-13A11.77,11.77,0,0,1,136.61,799a11.93,11.93,0,0,1,11.62,12.94A12.06,12.06,0,0,1,135.58,823.42Z" fill="#f93"/><path d="M12.33,344.05A12.1,12.1,0,0,1,.27,332c0-7,5.3-12.21,12.46-12.14a12.12,12.12,0,1,1-.4,24.23Z" fill="#f93"/><path d="M383.29,424a11.8,11.8,0,0,1-12.23-11.81,12.12,12.12,0,1,1,24.22-.27A11.86,11.86,0,0,1,383.29,424Z" fill="#f93"/><path d="M383.31,719.05a12.3,12.3,0,1,1-12.25,12.34C371.05,724.24,376.26,719,383.31,719.05Z" fill="#f93"/><path d="M148.25,651.4a12.32,12.32,0,0,1-12.41,12.37A12,12,0,0,1,124,651.45c0-7.14,5.3-12.45,12.3-12.33A12.29,12.29,0,0,1,148.25,651.4Z" fill="#f93"/><path d="M383.2,503.93A11.84,11.84,0,0,1,371.07,492a12.12,12.12,0,1,1,12.13,11.94Z" fill="#f93"/><path d="M86.38,491.71c0,6.94-5.11,12.17-11.87,12.22a12.13,12.13,0,0,1-12.36-12.31,12.12,12.12,0,1,1,24.23.09Z" fill="#f93"/><path d="M86.38,571.69a12,12,0,0,1-12,12.17,12.34,12.34,0,1,1,12-12.17Z" fill="#f93"/><path d="M395.29,571.5a12.29,12.29,0,0,1-11.84,12.36,12,12,0,0,1-12.39-12.26,12.12,12.12,0,1,1,24.23-.1Z" fill="#f93"/><path d="M333.44,411.75A11.76,11.76,0,0,1,321.16,424a12,12,0,0,1-12-12.14,12.13,12.13,0,1,1,24.25-.1Z" fill="#f93"/><path d="M444.91,344.05a12.12,12.12,0,1,1,0-24.23c7,0,12.17,5.05,12.27,11.82A12.12,12.12,0,0,1,444.91,344.05Z" fill="#f93"/><path d="M148.25,411.8A12.07,12.07,0,0,1,136.31,424,11.75,11.75,0,0,1,124,411.78a12.12,12.12,0,1,1,24.24,0Z" fill="#f93"/><path d="M198.06,319.83a11.89,11.89,0,0,1,12.07,12.05,12.34,12.34,0,1,1-12.07-12.05Z" fill="#f93"/><path d="M148.25,731.5a12.12,12.12,0,1,1-24.24-.4,11.83,11.83,0,0,1,12-12A12.13,12.13,0,0,1,148.25,731.5Z" fill="#f93"/><path d="M148.25,332.14a11.85,11.85,0,0,1-12.15,11.91c-7.16,0-12.19-5.14-12.09-12.37s5.25-12.06,12.56-11.85A11.73,11.73,0,0,1,148.25,332.14Z" fill="#f93"/><path d="M321.69,719.06a11.85,11.85,0,0,1,11.75,12.3,12.12,12.12,0,1,1-11.75-12.3Z" fill="#f93"/><path d="M86.39,971c0,7.18-5.21,12.2-12.41,12.06a11.78,11.78,0,0,1-11.82-12.21c0-7.12,5.26-12.15,12.46-12C81.59,959,86.42,964,86.39,971Z" fill="#f93"/><path d="M395.28,332.09a11.81,11.81,0,0,1-12.07,12c-7.14,0-12.22-5.13-12.15-12.33s5.22-12.07,12.51-11.89A11.68,11.68,0,0,1,395.28,332.09Z" fill="#f93"/><path d="M124,491.21a12.12,12.12,0,1,1,11.83,12.72C128.9,503.86,123.8,498.37,124,491.21Z" fill="#f93"/><path d="M333.44,491.62a11.87,11.87,0,0,1-11.75,12.31,12.31,12.31,0,1,1,11.75-12.31Z" fill="#f93"/><path d="M395.29,651.23a12.12,12.12,0,1,1-24.23.39,12,12,0,0,1,12.14-12.5A12.26,12.26,0,0,1,395.29,651.23Z" fill="#f93"/><path d="M74.38,319.82c7.23.05,12.14,5.13,12,12.42a11.68,11.68,0,0,1-12.17,11.81,12.12,12.12,0,1,1,.17-24.23Z" fill="#f93"/><path d="M259.47,239.9a12.11,12.11,0,1,1,.25,24.22,12.11,12.11,0,1,1-.25-24.22Z" fill="#f93"/><path d="M148.25,251.83A11.82,11.82,0,0,1,136,264.12c-7,0-11.92-4.91-12-11.92s4.73-12.15,11.63-12.3C142.81,239.75,148.16,244.81,148.25,251.83Z" fill="#f93"/><path d="M74.31,264.12a12.11,12.11,0,1,1,0-24.22c7.15,0,12.17,5.12,12.07,12.37A11.57,11.57,0,0,1,74.31,264.12Z" fill="#f93"/><path d="M62.15,651.41a12.28,12.28,0,0,1,11.91-12.29,12,12,0,0,1,12.32,12.32,12.12,12.12,0,1,1-24.23,0Z" fill="#f93"/><path d="M197.87,903.16a12.12,12.12,0,1,1-.07-24.23,12.16,12.16,0,0,1,12.33,11.85A12,12,0,0,1,197.87,903.16Z" fill="#f93"/><path d="M259.79,903.16c-7.16.07-12.5-5.12-12.48-12.14a12.14,12.14,0,0,1,12.08-12.09,12.12,12.12,0,1,1,.4,24.23Z" fill="#f93"/><path d="M321.6,903.16a12.11,12.11,0,1,1-.48-24.22c7.19-.11,12.32,4.95,12.32,12.13S328.61,903.06,321.6,903.16Z" fill="#f93"/><path d="M395.28,890.9c.08,7.16-5,12.29-12.22,12.26-7,0-11.93-4.91-12-11.92-.07-7.18,5-12.33,12.16-12.3A11.79,11.79,0,0,1,395.28,890.9Z" fill="#f93"/><path d="M74.26,160a11.8,11.8,0,0,1,12.13,12.38c-.09,7-5,11.83-12.08,11.85s-12.25-5.11-12.15-12.3A11.82,11.82,0,0,1,74.26,160Z" fill="#f93"/><path d="M86.39,890.88c.08,7.25-4.91,12.3-12.15,12.28a11.67,11.67,0,0,1-12.08-11.89,11.81,11.81,0,0,1,12.19-12.33A11.67,11.67,0,0,1,86.39,890.88Z" fill="#f93"/><path d="M309.19,331.59c.17-7.08,5.49-12,12.73-11.76,6.94.23,11.65,5.3,11.51,12.4S328,344.31,320.78,344A11.86,11.86,0,0,1,309.19,331.59Z" fill="#f93"/><path d="M124,970.23c.3-6.91,5.49-11.61,12.53-11.36a11.83,11.83,0,0,1,11.68,12.83c-.34,6.93-5.94,11.77-13.14,11.36C128.31,982.67,123.71,977.35,124,970.23Z" fill="#f93"/><path d="M333.44,970.94c0,7-4.88,12-11.79,12.14-7.15.09-12.44-5.05-12.45-12.08s5.23-12.2,12.39-12.14C328.55,958.92,333.43,963.9,333.44,970.94Z" fill="#f93"/><path d="M395.28,970.92a11.79,11.79,0,0,1-11.86,12.16c-7.2.12-12.34-4.9-12.36-12.09s5-12.22,12.28-12.13A11.74,11.74,0,0,1,395.28,970.92Z" fill="#f93"/><path d="M148.24,890.81a11.8,11.8,0,0,1-11.66,12.35c-7.31.21-12.46-4.64-12.57-11.84s4.91-12.37,12.07-12.38A11.82,11.82,0,0,1,148.24,890.81Z" fill="#f93"/><path d="M259.61,344.05a12.28,12.28,0,0,1-12.3-11.89,11.93,11.93,0,0,1,12.28-12.34,12.12,12.12,0,1,1,0,24.23Z" fill="#f93"/><path d="M197.86,264.12a12.11,12.11,0,1,1,0-24.22,12.11,12.11,0,1,1,0,24.22Z" fill="#f93"/><path d="M197.75,958.86a12.11,12.11,0,1,1,.19,24.22,12.11,12.11,0,1,1-.19-24.22Z" fill="#f93"/><path d="M259.72,958.86a12.11,12.11,0,1,1-.24,24.22,12.11,12.11,0,1,1,.24-24.22Z" fill="#f93"/></svg>