<svg id="Layer_1" data-name="Layer 1" xmlns="http://www.w3.org/2000/svg" viewBox="0 0 276 35.35"><title>turmas</title><path d="M45.27,10.41,43.9,9.84V8.27h3.77l5.45,14.26V10.41l-1.37-.57V8.27H56V9.84l-1.37.57v17.3H52.86l-6-15.5V25.58l1.37.57v1.56H43.9V26.15l1.37-.57Z" fill="#f93"/><path d="M65.32,20.42a17,17,0,0,1-.3,3.26,8.85,8.85,0,0,1-.87,2.55,3.37,3.37,0,0,1-1.29,1.35,4.16,4.16,0,0,1-3.56,0A3.37,3.37,0,0,1,58,26.23a8.85,8.85,0,0,1-.87-2.55,17.81,17.81,0,0,1,0-6.51A8.64,8.64,0,0,1,58,14.62a3.37,3.37,0,0,1,1.29-1.35,4.07,4.07,0,0,1,3.56,0,3.37,3.37,0,0,1,1.29,1.35A8.64,8.64,0,0,1,65,17.17,16.85,16.85,0,0,1,65.32,20.42Zm-5.73,4.67a1.56,1.56,0,0,0,3,0,14.22,14.22,0,0,0,.52-4.67,14.26,14.26,0,0,0-.52-4.67,1.56,1.56,0,0,0-3,0,14.55,14.55,0,0,0-.52,4.67A14.51,14.51,0,0,0,59.59,25.09Z" fill="#f93"/><path d="M69.5,28,66.67,15.13l-.91-.51V13.11H69.9v1.51l-1.07.51,2,9.91h.07l2-9.88-1-.52V13.13h3.58v1.51l-.94.52L71.67,28Z" fill="#f93"/><path d="M75.84,24.53a5.89,5.89,0,0,1,.3-2,4,4,0,0,1,.93-1.5A5.53,5.53,0,0,1,78.67,20,14.65,14.65,0,0,1,81,19.15c0-.9-.12-1.58-.19-2.06a7.41,7.41,0,0,0-.28-1.26,4,4,0,0,0-.53-1,1,1,0,0,0-.78-.37,1,1,0,0,0-.63.21,1.08,1.08,0,0,0-.38.6,1.15,1.15,0,0,1,.32.6,3.11,3.11,0,0,1,.09.69,2.07,2.07,0,0,1-.36,1.2,1,1,0,0,1-.86.53.88.88,0,0,1-.81-.55,3,3,0,0,1-.29-1.39,3.67,3.67,0,0,1,.28-1.49,3.26,3.26,0,0,1,.73-1.09,3.2,3.2,0,0,1,1-.68,3.09,3.09,0,0,1,1.14-.23,2.59,2.59,0,0,1,1.38.37,3.14,3.14,0,0,1,1,.9q1.29,1.89,1.29,6v3.51a10.56,10.56,0,0,0,.11,1.85c.07.33.22.5.46.5h.74V27.2a5.62,5.62,0,0,1-2.27.78.69.69,0,0,1-.45-.13,1,1,0,0,1-.27-.46,4.89,4.89,0,0,1-.14-.89c0-.38,0-.87,0-1.46h-.06a5.58,5.58,0,0,1-1.34,2.16A2.59,2.59,0,0,1,78,28a1.81,1.81,0,0,1-1.61-.92A4.66,4.66,0,0,1,75.84,24.53ZM79,26a1.22,1.22,0,0,0,.76-.36,3,3,0,0,0,.72-1.07,5.47,5.47,0,0,0,.35-1.08A8.09,8.09,0,0,0,81,21.83c0-.22,0-.46,0-.72s0-.52-.05-.77a7.83,7.83,0,0,0-1.41.64,3.56,3.56,0,0,0-.9.74,2.45,2.45,0,0,0-.49.93,4.38,4.38,0,0,0-.15,1.2,3.17,3.17,0,0,0,.33,1.68A.89.89,0,0,0,79,26Z" fill="#f93"/><path d="M88.27,26.34A2.19,2.19,0,0,0,89,26.2a1.83,1.83,0,0,0,.63-.38,1.63,1.63,0,0,0,.42-.6,2.19,2.19,0,0,0,.16-.83,2,2,0,0,0-.21-.94,2.2,2.2,0,0,0-.54-.71,4.15,4.15,0,0,0-.75-.52l-.82-.45a5.19,5.19,0,0,1-1-.61,3.75,3.75,0,0,1-.86-.91,4.53,4.53,0,0,1-.61-1.31,6,6,0,0,1-.23-1.78A5.17,5.17,0,0,1,86.09,14a2.79,2.79,0,0,1,2.43-1.18,3.25,3.25,0,0,1,1.35.27,3,3,0,0,1,1,.77,3.81,3.81,0,0,1,.66,1.19,4.54,4.54,0,0,1,.23,1.5,2.74,2.74,0,0,1-.3,1.43.93.93,0,0,1-.82.49,1,1,0,0,1-.82-.42,1.72,1.72,0,0,1-.29-1,2.41,2.41,0,0,1,.16-.88,1.5,1.5,0,0,1,.43-.63,2,2,0,0,0-.61-.8,1.58,1.58,0,0,0-1-.28,1.31,1.31,0,0,0-1.14.53,2.5,2.5,0,0,0-.38,1.47,2.53,2.53,0,0,0,.43,1.6,3.11,3.11,0,0,0,1.14.88c.44.22.87.44,1.29.68a4.76,4.76,0,0,1,1.13.86,3.83,3.83,0,0,1,.8,1.26,4.75,4.75,0,0,1,.3,1.79,5.49,5.49,0,0,1-.3,1.88A3.81,3.81,0,0,1,91,26.83a3.63,3.63,0,0,1-1.25.86,4.15,4.15,0,0,1-1.55.29A3.17,3.17,0,0,1,85.78,27a3.65,3.65,0,0,1-.87-2.57,3.39,3.39,0,0,1,.38-1.73,1.07,1.07,0,0,1,.89-.62,1,1,0,0,1,.73.37,1.49,1.49,0,0,1,.33,1,2.53,2.53,0,0,1-.18.94,1.93,1.93,0,0,1-.4.68,2.27,2.27,0,0,0,.53.81A1.46,1.46,0,0,0,88.27,26.34Z" fill="#f93"/><path d="M96.66,13.51l1.59-.38.2-3.35,1.86-.43v3.78h2.09v1.76h-2.09v8.83c0,.61,0,1,0,1.25a3.69,3.69,0,0,0,.06.56.43.43,0,0,0,.18.24.91.91,0,0,0,.43.08h1.14V27a11.17,11.17,0,0,1-1.67.71,3.89,3.89,0,0,1-1.15.23c-.49,0-.81-.33-.95-1a4.07,4.07,0,0,1-.11-.82c0-.33,0-.84,0-1.53V14.89H96.66Z" fill="#f93"/><path d="M106.08,20.37c0,.58,0,1.07,0,1.5s0,.79,0,1.1a7.76,7.76,0,0,0,.06.8q0,.33.09.57a2.08,2.08,0,0,0,.43,1,.84.84,0,0,0,.61.34,1.29,1.29,0,0,0,.8-.27,2.8,2.8,0,0,0,.67-.73,3.81,3.81,0,0,0,.53-1.25,9.56,9.56,0,0,0,.21-1.85v-6.4l-1.42-.52V13.13h3.49V25.69l1.25.51v1.51l-3,.27-.18-3h-.07a5.33,5.33,0,0,1-1.29,2.18,2.45,2.45,0,0,1-1.74.79,1.84,1.84,0,0,1-1.14-.38,2.44,2.44,0,0,1-.8-1.08,7.21,7.21,0,0,1-.47-2.11c-.09-.91-.14-2.14-.14-3.69V15.16l-1.09-.52V13.13h3.16Z" fill="#f93"/><path d="M118.55,15.1c-.1,0-.2.08-.31.22a2.65,2.65,0,0,0-.32.54,7.1,7.1,0,0,0-.28.69c-.08.24-.14.45-.19.63-.13.63-.24,1.27-.34,1.91a15.57,15.57,0,0,0-.15,2.36v4.24l1.77.51v1.51h-5.09V26.2l1.25-.51V14.75l-1.25-.51V13.13h2.84l.35,3.57h.07a8.48,8.48,0,0,1,1-2.85,1.74,1.74,0,0,1,1.41-1,1.23,1.23,0,0,1,1.06.66,3.2,3.2,0,0,1,.43,1.77,3.51,3.51,0,0,1-.3,1.47.91.91,0,0,1-.83.67,1,1,0,0,1-.94-.5,2.41,2.41,0,0,1-.26-1.1,2.82,2.82,0,0,1,0-.31C118.49,15.44,118.51,15.3,118.55,15.1Z" fill="#f93"/><path d="M122.66,15.16l-1.26-.52V13.13h2.84l.36,2.7h.06a5.62,5.62,0,0,1,1.27-2.17,2.38,2.38,0,0,1,1.69-.8,1.87,1.87,0,0,1,1.2.42,2.51,2.51,0,0,1,.75,1A8.14,8.14,0,0,1,130,16.1a6.39,6.39,0,0,1,1.35-2.39,2.51,2.51,0,0,1,1.78-.85,1.83,1.83,0,0,1,1.18.42,2.63,2.63,0,0,1,.79,1.15,5.22,5.22,0,0,1,.25.92c.06.36.12.8.16,1.33s.08,1.16.09,1.88,0,1.57,0,2.54v4.59l1.25.51v1.51h-4.42V26.2l1.1-.51V20.48c0-.58,0-1.08,0-1.5s0-.79,0-1.11-.05-.58-.08-.8a3.63,3.63,0,0,0-.12-.56,1.84,1.84,0,0,0-.43-.91.81.81,0,0,0-.56-.25,1.44,1.44,0,0,0-.75.19,2,2,0,0,0-.64.64,4,4,0,0,0-.53,1.26,9.56,9.56,0,0,0-.2,1.85v6.4l1.09.51v1.51H127V26.2l1.1-.51V20.48c0-.58,0-1.08,0-1.5s0-.79-.05-1.11,0-.58-.08-.8a5.56,5.56,0,0,0-.11-.56,1.92,1.92,0,0,0-.44-.91.8.8,0,0,0-.56-.25,1.44,1.44,0,0,0-.75.19,2,2,0,0,0-.64.64,4,4,0,0,0-.53,1.26,9.56,9.56,0,0,0-.2,1.85v6.4l1.09.51v1.51H121.4V26.2l1.26-.51Z" fill="#f93"/><path d="M137.62,24.53a5.89,5.89,0,0,1,.3-2,4,4,0,0,1,.93-1.5,5.53,5.53,0,0,1,1.6-1.11,14,14,0,0,1,2.31-.81c-.06-.9-.12-1.58-.19-2.06a7.35,7.35,0,0,0-.29-1.26,3.73,3.73,0,0,0-.53-1,.94.94,0,0,0-.77-.37,1,1,0,0,0-1,.81,1.15,1.15,0,0,1,.31.6,3.11,3.11,0,0,1,.09.69,2.07,2.07,0,0,1-.36,1.2,1,1,0,0,1-.86.53.88.88,0,0,1-.81-.55,3,3,0,0,1-.28-1.39,3.85,3.85,0,0,1,.27-1.49,3.28,3.28,0,0,1,.74-1.09,3.09,3.09,0,0,1,2.15-.91,2.59,2.59,0,0,1,1.38.37,3.07,3.07,0,0,1,1,.9q1.29,1.89,1.29,6v3.51a10.87,10.87,0,0,0,.1,1.85c.07.33.23.5.47.5h.73V27.2a5.62,5.62,0,0,1-2.27.78.73.73,0,0,1-.45-.13.92.92,0,0,1-.26-.46,3.6,3.6,0,0,1-.14-.89c0-.38,0-.87,0-1.46H143a5.47,5.47,0,0,1-1.34,2.16,2.57,2.57,0,0,1-1.79.78,1.82,1.82,0,0,1-1.62-.92A4.67,4.67,0,0,1,137.62,24.53ZM140.81,26a1.22,1.22,0,0,0,.76-.36,3.09,3.09,0,0,0,.73-1.07,5.56,5.56,0,0,0,.34-1.08,7.45,7.45,0,0,0,.16-1.67c0-.22,0-.46,0-.72s0-.52,0-.77a7.24,7.24,0,0,0-1.41.64,3.45,3.45,0,0,0-.91.74,2.45,2.45,0,0,0-.49.93,4.82,4.82,0,0,0-.14,1.2,3.18,3.18,0,0,0,.32,1.68A.89.89,0,0,0,140.81,26Z" fill="#f93"/><path d="M150.05,26.34a2.14,2.14,0,0,0,.76-.14,1.83,1.83,0,0,0,.63-.38,1.77,1.77,0,0,0,.43-.6,2.19,2.19,0,0,0,.15-.83,2.13,2.13,0,0,0-.2-.94,2.52,2.52,0,0,0-.54-.71,4.15,4.15,0,0,0-.75-.52l-.82-.45a5.19,5.19,0,0,1-1-.61,4,4,0,0,1-.87-.91,4.8,4.8,0,0,1-.61-1.31,6.3,6.3,0,0,1-.23-1.78,5.17,5.17,0,0,1,.85-3.12,2.81,2.81,0,0,1,2.43-1.18,3.34,3.34,0,0,1,1.36.27,2.87,2.87,0,0,1,1,.77,3.45,3.45,0,0,1,.66,1.19,4.54,4.54,0,0,1,.24,1.5,2.74,2.74,0,0,1-.3,1.43,1,1,0,0,1-1.64.07,1.65,1.65,0,0,1-.29-1,2.41,2.41,0,0,1,.16-.88,1.58,1.58,0,0,1,.42-.63,1.92,1.92,0,0,0-.61-.8,1.53,1.53,0,0,0-.95-.28,1.33,1.33,0,0,0-1.15.53,2.5,2.5,0,0,0-.37,1.47,2.53,2.53,0,0,0,.42,1.6,3.23,3.23,0,0,0,1.15.88c.43.22.86.44,1.28.68a4.62,4.62,0,0,1,1.14.86,3.83,3.83,0,0,1,.8,1.26,4.75,4.75,0,0,1,.3,1.79,5.49,5.49,0,0,1-.3,1.88,3.69,3.69,0,0,1-.84,1.37,3.59,3.59,0,0,1-1.24.86A4.19,4.19,0,0,1,150,28a3.14,3.14,0,0,1-2.44-.94,3.65,3.65,0,0,1-.87-2.57,3.39,3.39,0,0,1,.37-1.73,1.07,1.07,0,0,1,.9-.62,1,1,0,0,1,.73.37,1.49,1.49,0,0,1,.33,1,2.53,2.53,0,0,1-.18.94,1.94,1.94,0,0,1-.41.68A2.3,2.3,0,0,0,149,26,1.46,1.46,0,0,0,150.05,26.34Z" fill="#f93"/><path d="M161.11,20.8a11.88,11.88,0,0,0,.32,3.05q.52,1.92,1.8,1.92a2.35,2.35,0,0,0,1.43-.53,4.11,4.11,0,0,0,1.21-1.63l.88,1.13a6.89,6.89,0,0,1-1.54,2.3,3.29,3.29,0,0,1-2.39.94,2.9,2.9,0,0,1-2.06-.79,5.06,5.06,0,0,1-1.32-2.34,11.67,11.67,0,0,1-.36-1.85,21.6,21.6,0,0,1-.11-2.23,13.3,13.3,0,0,1,1-5.84,3.26,3.26,0,0,1,3-2.07,3,3,0,0,1,1.6.45,3.7,3.7,0,0,1,1.21,1.27,6.81,6.81,0,0,1,.77,2,12.46,12.46,0,0,1,.27,2.72c0,.19,0,.39,0,.58s0,.49,0,.9ZM163,14.73c-1.12,0-1.74,1.44-1.85,4.34h3.59v-.7a6.28,6.28,0,0,0-.46-2.7A1.4,1.4,0,0,0,163,14.73Z" fill="#f93"/><path d="M169.18,15.16l-1.25-.52V13.13h2.83l.36,2.7h.07a5.48,5.48,0,0,1,1.26-2.17,2.38,2.38,0,0,1,1.69-.8,1.83,1.83,0,0,1,1.2.42,2.63,2.63,0,0,1,.76,1,8.84,8.84,0,0,1,.42,1.78,6.26,6.26,0,0,1,1.36-2.39,2.47,2.47,0,0,1,1.77-.85,1.83,1.83,0,0,1,1.18.42,2.65,2.65,0,0,1,.8,1.15,4.52,4.52,0,0,1,.24.92c.07.36.12.8.17,1.33s.07,1.16.08,1.88,0,1.57,0,2.54v4.59l1.26.51v1.51H179V26.2l1.1-.51V20.48c0-.58,0-1.08,0-1.5s0-.79-.05-1.11,0-.58-.08-.8a5.56,5.56,0,0,0-.11-.56,1.92,1.92,0,0,0-.44-.91.78.78,0,0,0-.56-.25,1.44,1.44,0,0,0-.75.19,1.92,1.92,0,0,0-.63.64,3.77,3.77,0,0,0-.53,1.26,8.75,8.75,0,0,0-.21,1.85v6.4l1.09.51v1.51h-4.25V26.2l1.09-.51V20.48c0-.58,0-1.08,0-1.5s0-.79-.05-1.11a7.42,7.42,0,0,0-.08-.8,5.56,5.56,0,0,0-.11-.56,1.93,1.93,0,0,0-.43-.91.82.82,0,0,0-.57-.25,1.44,1.44,0,0,0-.75.19,2,2,0,0,0-.63.64,3.77,3.77,0,0,0-.53,1.26,8.75,8.75,0,0,0-.21,1.85v6.4l1.1.51v1.51h-4.42V26.2l1.25-.51Z" fill="#f93"/><path d="M196.91,20.29a16.68,16.68,0,0,1-.31,3.33,9.4,9.4,0,0,1-.86,2.61A2.86,2.86,0,0,1,193.11,28a2.07,2.07,0,0,1-1.48-.63A5.51,5.51,0,0,1,190.47,25L190,27.71h-1.26v-19l-1.25-.52V6.65h3.32v8a3.49,3.49,0,0,1,1.1-1.43,2.36,2.36,0,0,1,1.35-.41,2.76,2.76,0,0,1,2.61,1.7,9.52,9.52,0,0,1,.78,2.51A17.24,17.24,0,0,1,196.91,20.29Zm-6.12.13a17.27,17.27,0,0,0,.17,2.65,8.3,8.3,0,0,0,.41,1.67A3.22,3.22,0,0,0,192,25.8a1.15,1.15,0,0,0,.88.37,1,1,0,0,0,.82-.36,3.39,3.39,0,0,0,.52-.93,9.12,9.12,0,0,0,.37-1.69,18.06,18.06,0,0,0,.13-2.39,24.62,24.62,0,0,0-.14-2.74,13.06,13.06,0,0,0-.35-2A2.56,2.56,0,0,0,193.7,15a1.07,1.07,0,0,0-.85-.37,1.49,1.49,0,0,0-.84.27,1.85,1.85,0,0,0-.64,1,9.7,9.7,0,0,0-.41,1.8A18.52,18.52,0,0,0,190.79,20.42Z" fill="#f93"/><path d="M202.92,15.1a.43.43,0,0,0-.31.22,2.65,2.65,0,0,0-.32.54,5.24,5.24,0,0,0-.28.69c-.08.24-.14.45-.19.63-.13.63-.24,1.27-.34,1.91a15.57,15.57,0,0,0-.15,2.36v4.24l1.76.51v1.51H198V26.2l1.25-.51V14.75L198,14.24V13.13h2.83l.36,3.57h.07a8.48,8.48,0,0,1,1-2.85,1.74,1.74,0,0,1,1.41-1,1.23,1.23,0,0,1,1.06.66,3.2,3.2,0,0,1,.43,1.77,3.51,3.51,0,0,1-.3,1.47.91.91,0,0,1-.83.67,1,1,0,0,1-.94-.5,2.3,2.3,0,0,1-.27-1.1,2.54,2.54,0,0,1,0-.31C202.86,15.44,202.88,15.3,202.92,15.1Z" fill="#f93"/><path d="M208,20.8a11.88,11.88,0,0,0,.32,3.05q.53,1.92,1.8,1.92a2.37,2.37,0,0,0,1.43-.53,4.11,4.11,0,0,0,1.21-1.63l.88,1.13a6.89,6.89,0,0,1-1.54,2.3,3.29,3.29,0,0,1-2.39.94,2.9,2.9,0,0,1-2.06-.79,5.06,5.06,0,0,1-1.32-2.34,11.67,11.67,0,0,1-.36-1.85,21.6,21.6,0,0,1-.11-2.23,13.3,13.3,0,0,1,1-5.84,3.25,3.25,0,0,1,3-2.07,3,3,0,0,1,1.6.45,3.7,3.7,0,0,1,1.21,1.27,6.81,6.81,0,0,1,.77,2,12.46,12.46,0,0,1,.27,2.72c0,.19,0,.39,0,.58s0,.49,0,.9Zm1.86-6.07c-1.12,0-1.74,1.44-1.85,4.34h3.59v-.7a6.28,6.28,0,0,0-.46-2.7A1.4,1.4,0,0,0,209.82,14.73Z" fill="#f93"/><path d="M217.92,28,215.1,15.13l-.91-.51V13.11h4.14v1.51l-1.08.51,2,9.91h.07l2-9.88-1-.52V13.13h3.59v1.51l-.94.52L220.09,28Z" fill="#f93"/><path d="M226.46,20.8a11.88,11.88,0,0,0,.32,3.05q.53,1.92,1.8,1.92a2.39,2.39,0,0,0,1.43-.53,4.11,4.11,0,0,0,1.21-1.63l.88,1.13a7,7,0,0,1-1.54,2.3,3.3,3.3,0,0,1-2.39.94,2.93,2.93,0,0,1-2.07-.79,5.14,5.14,0,0,1-1.31-2.34,11.67,11.67,0,0,1-.36-1.85,21.6,21.6,0,0,1-.11-2.23,13.3,13.3,0,0,1,1-5.84,3.25,3.25,0,0,1,3-2.07,3,3,0,0,1,1.6.45,3.79,3.79,0,0,1,1.21,1.27,6.81,6.81,0,0,1,.77,2,12.46,12.46,0,0,1,.27,2.72c0,.19,0,.39,0,.58s0,.49,0,.9Zm1.85-6.07c-1.12,0-1.73,1.44-1.84,4.34h3.59v-.7a6.28,6.28,0,0,0-.46-2.7A1.4,1.4,0,0,0,228.31,14.73Z" fill="#f93"/><path d="M34.94,35.35H4.5A4.5,4.5,0,0,1,.61,28.61L15.83,2.25A4.44,4.44,0,0,1,19.72,0h0a4.44,4.44,0,0,1,3.89,2.25L38.83,28.61a4.5,4.5,0,0,1-3.89,6.74ZM17.85,3.41,2.63,29.77A2.17,2.17,0,0,0,4.5,33H34.94a2.17,2.17,0,0,0,1.87-3.25L21.59,3.41a2.16,2.16,0,0,0-3.74,0Z" fill="#f93"/><path d="M19.73,9.54h0a2.81,2.81,0,0,1,2.79,3.15L21.29,23a1.58,1.58,0,0,1-1.57,1.39h0A1.58,1.58,0,0,1,18.15,23L16.93,12.68A2.82,2.82,0,0,1,19.73,9.54Z" fill="#f93"/><path d="M18.13,29.43a2.24,2.24,0,0,1,1.6-3.83,2.25,2.25,0,1,1,0,4.49A2.17,2.17,0,0,1,18.13,29.43Z" fill="#f93"/><path d="M271.5,35.35H241.06a4.5,4.5,0,0,1-3.89-6.74L252.39,2.25A4.44,4.44,0,0,1,256.28,0h0a4.44,4.44,0,0,1,3.89,2.25l15.22,26.36a4.5,4.5,0,0,1-3.89,6.74ZM254.41,3.41,239.19,29.77A2.17,2.17,0,0,0,241.06,33H271.5a2.17,2.17,0,0,0,1.87-3.25L258.15,3.41a2.16,2.16,0,0,0-3.74,0Z" fill="#f93"/><path d="M256.29,9.54h0a2.81,2.81,0,0,1,2.79,3.15L257.85,23a1.58,1.58,0,0,1-1.57,1.39h0A1.58,1.58,0,0,1,254.71,23l-1.22-10.34A2.82,2.82,0,0,1,256.29,9.54Z" fill="#f93"/><path d="M254.69,29.43a2.24,2.24,0,0,1,1.6-3.83,2.25,2.25,0,1,1,0,4.49A2.17,2.17,0,0,1,254.69,29.43Z" fill="#f93"/></svg>